<svg id="eMBGRTrmKt91" xmlns="http://www.w3.org/2000/svg" xmlns:xlink="http://www.w3.org/1999/xlink" viewBox="0 0 942.09 942.09" shape-rendering="geometricPrecision" text-rendering="geometricPrecision"><style><![CDATA[#eMBGRTrmKt92 {animation: eMBGRTrmKt92_c_o 4500ms linear 1 normal forwards}@keyframes eMBGRTrmKt92_c_o { 0% {opacity: 0} 22.222222% {opacity: 0} 44.444444% {opacity: 1} 100% {opacity: 1}} #eMBGRTrmKt93_ts {animation: eMBGRTrmKt93_ts__ts 4500ms linear 1 normal forwards}@keyframes eMBGRTrmKt93_ts__ts { 0% {transform: translate(462.10733px,184.13754px) scale(0.072276,0.072276)} 48.888889% {transform: translate(462.10733px,184.13754px) scale(0.072276,0.072276)} 77.777778% {transform: translate(462.10733px,184.13754px) scale(0.577948,0.577948)} 100% {transform: translate(462.10733px,184.13754px) scale(0.577948,0.577948)}} #eMBGRTrmKt9293_to {animation: eMBGRTrmKt9293_to__to 4500ms linear 1 normal forwards}@keyframes eMBGRTrmKt9293_to__to { 0% {transform: translate(423.594636px,439.080756px)} 51.111111% {transform: translate(423.594636px,439.080756px)} 82.222222% {transform: translate(419.370777px,450.49818px)} 100% {transform: translate(419.370777px,450.49818px)}} #eMBGRTrmKt9293_ts {animation: eMBGRTrmKt9293_ts__ts 4500ms linear 1 normal forwards}@keyframes eMBGRTrmKt9293_ts__ts { 0% {transform: scale(1,0.72802)} 51.111111% {transform: scale(1,0.72802)} 82.222222% {transform: scale(1,1.008712)} 100% {transform: scale(1,1.008712)}} #eMBGRTrmKt9293 {animation: eMBGRTrmKt9293_c_o 4500ms linear 1 normal forwards}@keyframes eMBGRTrmKt9293_c_o { 0% {opacity: 0} 51.111111% {opacity: 0} 62.222222% {opacity: 0.28} 73.333333% {opacity: 0.69} 80% {opacity: 0.97} 100% {opacity: 0.97}}]]></style><g id="eMBGRTrmKt92" transform="matrix(1.297168 0 0 1.297168-123.416437-83.743858)" opacity="0"><g id="eMBGRTrmKt93_ts" transform="translate(462.10733,184.13754) scale(0.072276,0.072276)"><g transform="translate(-784.531738,-785.61499)"><path d="M783.32,730v43.33c.039898.314793.307688.550785.625.550785s.585102-.235992.625-.550785v-43.33c-.039898-.314793-.307688-.550785-.625-.550785s-.585102.235992-.625.550785Z" fill="#231f20"/><path d="M783.32,716v10.48c.039898.314793.307688.550785.625.550785s.585102-.235992.625-.550785v-10.48c-.039898-.314793-.307688-.550785-.625-.550785s-.585102.235992-.625.550785Z" fill="#231f20"/><path d="M783.32,687.35v25.16c.039898.314793.307688.550785.625.550785s.585102-.235992.625-.550785v-25.16c-.039898-.314793-.307688-.550785-.625-.550785s-.585102.235992-.625.550785Z" fill="#231f20"/><path d="M783.32,679.67v4.19c.039898.314793.307688.550785.625.550785s.585102-.235992.625-.550785v-4.19c-.039898-.314793-.307688-.550785-.625-.550785s-.585102.235992-.625.550785Z" fill="#231f20"/><path d="M783.32,669.88v6.29c.039898.314793.307688.550785.625.550785s.585102-.235992.625-.550785v-6.29c-.039898-.314793-.307688-.550785-.625-.550785s-.585102.235992-.625.550785Z" fill="#231f20"/><path d="M783.32,656.65v9.75c.039898.314793.307688.550785.625.550785s.585102-.235992.625-.550785v-9.75c-.039898-.314793-.307688-.550785-.625-.550785s-.585102.235992-.625.550785Z" fill="#231f20"/><path d="M771.86,720.79q4.68,26.51,9.35,53c.14.8,1.34.46,1.2-.33q-4.67-26.49-9.34-53c-.14-.79-1.35-.46-1.21.33Z" fill="#231f20"/><path d="M768.85,703.7q1.13,6.4,2.26,12.82c.14.79,1.34.45,1.2-.33q-1.12-6.42-2.26-12.82c-.14-.8-1.34-.46-1.2.33Z" fill="#231f20"/><path d="M762.67,668.66l5.43,30.76c.14.8,1.34.46,1.2-.33q-2.71-15.37-5.42-30.77c-.14-.79-1.35-.45-1.21.34Z" fill="#231f20"/><path d="M761,659.25c.3,1.71.61,3.42.91,5.13.14.79,1.34.46,1.2-.33l-.9-5.13c-.14-.79-1.35-.45-1.21.33Z" fill="#231f20"/><path d="M758.9,647.29c.45,2.56.91,5.13,1.36,7.69.14.79,1.34.46,1.2-.33L760.11,647c-.14-.8-1.35-.46-1.21.33Z" fill="#231f20"/><path d="M756.05,631.11l2.1,11.92c.14.79,1.35.46,1.21-.33q-1.05-6-2.11-11.93c-.14-.79-1.34-.45-1.2.34Z" fill="#231f20"/><path d="M763.26,730.77l15.9,43.68c.27.75,1.48.42,1.2-.33l-15.89-43.68c-.28-.75-1.48-.43-1.21.33Z" fill="#231f20"/><path d="M758.14,716.69L762,727.25c.27.75,1.48.43,1.2-.33l-3.84-10.57c-.27-.75-1.48-.42-1.2.34Z" fill="#231f20"/><path d="M747.62,687.8q4.62,12.69,9.23,25.36c.28.75,1.48.43,1.21-.33q-4.62-12.68-9.23-25.36c-.27-.75-1.48-.43-1.21.33Z" fill="#231f20"/><path d="M744.8,680.06c.52,1.4,1,2.81,1.54,4.22.27.75,1.48.43,1.21-.33-.52-1.41-1-2.82-1.54-4.23-.28-.75-1.48-.42-1.21.34Z" fill="#231f20"/><path d="M741.21,670.19l2.31,6.34c.27.75,1.48.43,1.21-.33l-2.31-6.34c-.28-.75-1.48-.43-1.21.33Z" fill="#231f20"/><path d="M736.36,656.86q1.78,4.9,3.58,9.82c.27.76,1.48.43,1.2-.33q-1.78-4.9-3.58-9.82c-.27-.76-1.48-.43-1.2.33Z" fill="#231f20"/><path d="M753.21,733.85l24.11,41.76c.192862.252589.543657.321986.818166.161856s.386772-.499645.261834-.791856l-24.11-41.76c-.192862-.252589-.543657-.321986-.818166-.161856s-.386772.499645-.261834.791856Z" fill="#231f20"/><path d="M745.44,720.38q2.91,5.05,5.83,10.11c.192862.252589.543657.321986.818166.161856s.386772-.499645.261834-.791856q-2.93-5.05-5.83-10.11c-.192862-.252589-.543657-.321986-.818166-.161856s-.386772.499645-.261834.791856Z" fill="#231f20"/><path d="M729.5,692.77q7,12.12,14,24.25c.192862.252589.543657.321986.818166.161856s.386772-.499645.261834-.791856q-7-12.14-14-24.25c-.17397-.295472-.554528-.39397-.85-.22s-.39397.554528-.22.85Z" fill="#231f20"/><path d="M725.22,685.36l2.33,4c.19018.266089.55235.342394.833722.175656s.388355-.521062.246278-.815656c-.78-1.34-1.55-2.69-2.33-4-.192862-.252589-.543657-.321986-.818166-.161856s-.386772.499645-.261834.791856Z" fill="#231f20"/><path d="M719.77,675.94q1.76,3,3.5,6.06c.192862.252589.543657.321986.818166.161856s.386772-.499645.261834-.791856q-1.74-3-3.5-6.06c-.192862-.252589-.543657-.321986-.818166-.161856s-.386772.499645-.261834.791856Z" fill="#231f20"/><path d="M712.41,663.19l5.43,9.39c.192862.252589.543657.321986.818166.161856s.386772-.499645.261834-.791856l-5.43-9.39c-.192862-.252589-.543657-.321986-.818166-.161856s-.386772.499645-.261834.791856Z" fill="#231f20"/><path d="M740.42,735l35.3,42.07c.52.62,1.4-.27.88-.88q-17.64-21-35.3-42.08c-.52-.62-1.4.27-.88.89Z" fill="#231f20"/><path d="M729,721.41l8.54,10.18c.52.62,1.4-.27.88-.88l-8.54-10.18c-.52-.62-1.39.27-.88.88Z" fill="#231f20"/><path d="M705.68,693.59L726.18,718c.52.62,1.4-.27.88-.88l-20.49-24.43c-.52-.62-1.4.27-.89.88Z" fill="#231f20"/><path d="M699.42,686.13l3.42,4.07c.52.62,1.4-.27.88-.88l-3.42-4.08c-.51-.61-1.39.27-.88.89Z" fill="#231f20"/><path d="M691.45,676.63c1.71,2,3.41,4.07,5.12,6.11.52.61,1.4-.28.89-.89l-5.13-6.11c-.52-.61-1.4.28-.88.89Z" fill="#231f20"/><path d="M680.67,663.78l7.94,9.47c.52.62,1.4-.27.89-.89l-8-9.46c-.52-.62-1.4.27-.88.88Z" fill="#231f20"/><path d="M735.2,745.87l39.08,32.79c.61.51,1.5-.37.88-.88q-19.53-16.41-39.08-32.8c-.61-.51-1.5.37-.88.89Z" fill="#231f20"/><path d="M722.59,735.29l9.45,7.93c.62.52,1.51-.36.89-.88l-9.46-7.94c-.61-.51-1.5.37-.88.89Z" fill="#231f20"/><path d="M696.75,713.6l22.69,19c.61.52,1.5-.36.88-.88l-22.69-19c-.61-.52-1.5.36-.88.88Z" fill="#231f20"/><path d="M689.81,707.78L693.6,711c.61.51,1.5-.37.88-.89l-3.79-3.17c-.61-.52-1.5.36-.88.88Z" fill="#231f20"/><path d="M681,700.38l5.67,4.76c.61.51,1.5-.37.88-.89l-5.67-4.76c-.61-.51-1.5.37-.88.89Z" fill="#231f20"/><path d="M669.05,690.36l8.8,7.38c.61.52,1.5-.36.88-.88l-8.79-7.38c-.62-.51-1.51.37-.89.88Z" fill="#231f20"/><path d="M731.88,756.69l41.38,23.89c.294594.142077.648917.035093.815656-.246278s.090433-.643542-.175656-.833722l-41.39-23.89c-.292211-.124938-.631725-.012675-.791856.261834s-.090733.625304.161856.818166Z" fill="#231f20"/><path d="M718.53,749l10,5.78c.295472.17397.67603.075472.85-.22s.075472-.67603-.22-.85l-10-5.79c-.292211-.124938-.631725-.012675-.791856.261834s-.090733.625304.161856.818166Z" fill="#231f20"/><path d="M691.17,733.18l24,13.88c.292211.124938.631725.012675.791856-.261834s.090733-.625304-.161856-.818166q-12-6.94-24-13.87c-.295472-.17397-.67603-.075472-.85.22s-.075472.67603.22.85Z" fill="#231f20"/><path d="M683.83,729l4,2.31c.292211.124938.631725.012675.791856-.261834s.090733-.625304-.161856-.818166l-4-2.31c-.292211-.124938-.631725-.012675-.791856.261834s-.090733.625304.161856.818166Z" fill="#231f20"/><path d="M674.48,723.55l6,3.47c.292211.124938.631725.012675.791856-.261834s.090733-.625304-.161856-.818166l-6-3.47c-.292211-.124938-.631725-.012675-.791856.261834s-.090733.625304.161856.818166Z" fill="#231f20"/><path d="M661.84,716.26l9.32,5.37c.292211.124938.631725.012675.791856-.261834s.090733-.625304-.161856-.818166l-9.32-5.37c-.292211-.124938-.631725-.012675-.791856.261834s-.090733.625304.161856.818166Z" fill="#231f20"/><path d="M721.37,764l51.24,18.65c.76.28,1.08-.93.33-1.2L721.7,762.79c-.76-.28-1.08.93-.33,1.2Z" fill="#231f20"/><path d="M704.84,758l12.4,4.51c.76.28,1.08-.93.33-1.2l-12.39-4.52c-.76-.27-1.09.94-.34,1.21Z" fill="#231f20"/><path d="M671,745.65l29.75,10.83c.76.27,1.08-.94.33-1.21l-29.75-10.83c-.76-.28-1.08.93-.33,1.21Z" fill="#231f20"/><path d="M661.87,742.34l5,1.8c.76.28,1.08-.93.33-1.2l-5-1.81c-.76-.27-1.08.93-.33,1.21Z" fill="#231f20"/><path d="M650.3,738.13l7.44,2.7c.76.28,1.08-.93.33-1.2l-7.44-2.71c-.75-.27-1.08.93-.33,1.21Z" fill="#231f20"/><path d="M634.65,732.43l11.53,4.2c.76.27,1.09-.93.34-1.21L635,731.23c-.76-.28-1.09.93-.34,1.2Z" fill="#231f20"/><path d="M725.46,776.51l46.7,8.24c.79.14,1.12-1.07.33-1.21l-46.7-8.23c-.78-.14-1.12,1.06-.33,1.2Z" fill="#231f20"/><path d="M710.4,773.86l11.3,2c.78.14,1.12-1.06.33-1.2l-11.3-2c-.79-.14-1.12,1.07-.33,1.21Z" fill="#231f20"/><path d="M679.52,768.41l27.11,4.79c.79.14,1.13-1.07.33-1.21l-27.11-4.78c-.79-.14-1.12,1.06-.33,1.2Z" transform="translate(.000001 0)" fill="#231f20"/><path d="M671.24,767l4.52.8c.78.14,1.12-1.07.33-1.21l-4.52-.79c-.79-.14-1.13,1.06-.33,1.2Z" fill="#231f20"/><path d="M660.69,765.09l6.78,1.2c.79.14,1.13-1.07.33-1.21l-6.8-1.19c-.78-.14-1.12,1.06-.33,1.2Z" fill="#231f20"/><path d="M646.43,762.58l10.51,1.85c.79.14,1.12-1.06.33-1.2l-10.51-1.85c-.78-.14-1.12,1.06-.33,1.2Z" fill="#231f20"/><path d="M723.35,786.92h48.9c.314793-.039898.550785-.307688.550785-.625s-.235992-.585102-.550785-.625h-48.9c-.314793.039898-.550785.307688-.550785.625s.235992.585102.550785.625Z" fill="#231f20"/><path d="M707.57,786.92h11.83c.314793-.039898.550785-.307688.550785-.625s-.235992-.585102-.550785-.625h-11.83c-.314793.039898-.550785.307688-.550785.625s.235992.585102.550785.625Z" fill="#231f20"/><path d="M675.23,786.92h28.4c.314793-.039898.550785-.307688.550785-.625s-.235992-.585102-.550785-.625h-28.4c-.314793.039898-.550785.307688-.550785.625s.235992.585102.550785.625Z" fill="#231f20"/><path d="M666.56,786.92h4.73c.314793-.039898.550785-.307688.550785-.625s-.235992-.585102-.550785-.625h-4.73c-.314793.039898-.550785.307688-.550785.625s.235992.585102.550785.625Z" fill="#231f20"/><path d="M655.52,786.92h7.1c.314793-.039898.550785-.307688.550785-.625s-.235992-.585102-.550785-.625h-7.1c-.314793.039898-.550785.307688-.550785.625s.235992.585102.550785.625Z" fill="#231f20"/><path d="M640.59,786.92h11c.314793-.039898.550785-.307688.550785-.625s-.235992-.585102-.550785-.625h-11c-.314793.039898-.550785.307688-.550785.625s.235992.585102.550785.625Z" fill="#231f20"/><path d="M730,796.56L772.71,789c.8-.14.46-1.34-.33-1.2l-42.67,7.52c-.79.14-.46,1.35.33,1.21Z" fill="#231f20"/><path d="M716.28,799l10.32-1.81c.79-.14.46-1.35-.33-1.21l-10.33,1.82c-.79.14-.45,1.34.34,1.2Z" fill="#231f20"/><path d="M688.06,804l24.77-4.37c.8-.14.46-1.34-.33-1.2l-24.78,4.37c-.79.14-.45,1.34.34,1.2Z" fill="#231f20"/><path d="M680.49,805.3l4.13-.73c.79-.14.45-1.35-.34-1.21l-4.13.73c-.79.14-.45,1.34.34,1.21Z" fill="#231f20"/><path d="M670.85,807l6.2-1.1c.79-.14.45-1.34-.33-1.2l-6.2,1.09c-.79.14-.46,1.34.33,1.21Z" fill="#231f20"/><path d="M657.82,809.29l9.6-1.69c.79-.14.46-1.35-.33-1.21l-9.6,1.7c-.8.14-.46,1.34.33,1.2Z" fill="#231f20"/><path d="M839.68,794.08L797,786.56c-.78-.14-1.12,1.07-.33,1.2l42.67,7.53c.79.14,1.13-1.07.33-1.21Z" fill="#231f20"/><path d="M853.45,796.51l-10.32-1.82c-.79-.14-1.13,1.06-.33,1.2l10.32,1.83c.79.13,1.12-1.07.33-1.21Z" fill="#231f20"/><path d="M881.67,801.49l-24.77-4.37c-.79-.14-1.13,1.06-.34,1.2l24.78,4.37c.79.14,1.12-1.06.33-1.2Z" fill="#231f20"/><path d="M889.24,802.82l-4.13-.73c-.78-.14-1.12,1.07-.33,1.21l4.13.73c.79.13,1.13-1.07.33-1.21Z" fill="#231f20"/><path d="M898.88,804.52l-6.2-1.09c-.79-.14-1.13,1.06-.33,1.2l6.19,1.09c.79.14,1.13-1.06.34-1.2Z" fill="#231f20"/><path d="M911.91,806.82l-9.6-1.69c-.79-.14-1.13,1.06-.33,1.2l9.6,1.69c.78.14,1.12-1.06.33-1.2Z" fill="#231f20"/><path d="M844.34,784.39h-47.41c-.314793.039898-.550785.307688-.550785.625s.235992.585102.550785.625h47.41c.314793-.039898.550785-.307688.550785-.625s-.235992-.585102-.550785-.625Z" fill="#231f20"/><path d="M859.63,784.38h-11.47c-.314793.039898-.550785.307688-.550785.625s.235992.585102.550785.625h11.47c.314793-.039898.550785-.307688.550785-.625s-.235992-.585102-.550785-.625Z" fill="#231f20"/><path d="M891,784.39h-27.54c-.314793.039898-.550785.307688-.550785.625s.235992.585102.550785.625h27.54c.314793-.039898.550785-.307688.550785-.625s-.235992-.585102-.550785-.625Z" fill="#231f20"/><path d="M899.4,784.38h-4.59c-.314793.039898-.550785.307688-.550785.625s.235992.585102.550785.625h4.59c.314793-.039898.550785-.307688.550785-.625s-.235992-.585102-.550785-.625Z" fill="#231f20"/><path d="M910.1,784.38h-6.88c-.314793.039898-.550785.307688-.550785.625s.235992.585102.550785.625h6.88c.314793-.039898.550785-.307688.550785-.625s-.235992-.585102-.550785-.625Z" fill="#231f20"/><path d="M924.59,784.38h-10.67c-.314793.039898-.550785.307688-.550785.625s.235992.585102.550785.625h10.67c.314793-.039898.550785-.307688.550785-.625s-.235992-.585102-.550785-.625Z" fill="#231f20"/><path d="M839.65,774.66l-43.19,7.61c-.79.14-.46,1.35.33,1.21L840,775.87c.8-.14.46-1.35-.33-1.21Z" fill="#231f20"/><path d="M853.58,772.2L843.14,774c-.8.14-.46,1.35.33,1.21l10.45-1.84c.79-.14.45-1.35-.34-1.21Z" fill="#231f20"/><path d="M882.15,767.16l-25.08,4.43c-.79.14-.45,1.34.33,1.2l25.08-4.42c.79-.14.46-1.34-.33-1.21Z" fill="#231f20"/><path d="M889.81,765.81l-4.18.74c-.79.14-.45,1.34.34,1.2l4.18-.73c.79-.14.45-1.35-.34-1.21Z" fill="#231f20"/><path d="M899.56,764.09l-6.27,1.11c-.79.14-.45,1.35.33,1.21l6.28-1.11c.79-.14.45-1.35-.34-1.21Z" fill="#231f20"/><path d="M912.76,761.77L903,763.48c-.79.14-.46,1.35.33,1.21l9.72-1.72c.79-.14.45-1.34-.33-1.2Z" fill="#231f20"/><path d="M841,763.76l-45.2,16.47c-.75.27-.43,1.48.33,1.2L841.37,765c.75-.28.43-1.49-.33-1.21Z" fill="#231f20"/><path d="M855.63,758.45l-10.94,4c-.76.27-.43,1.48.33,1.21l10.94-4c.75-.27.43-1.48-.33-1.2Z" fill="#231f20"/><path d="M885.55,747.56l-26.27,9.56c-.75.27-.42,1.48.34,1.2l26.26-9.56c.76-.27.43-1.48-.33-1.2Z" fill="#231f20"/><path d="M893.58,744.63l-4.38,1.6c-.75.27-.43,1.48.33,1.2l4.38-1.59c.75-.27.43-1.48-.33-1.21Z" fill="#231f20"/><path d="M903.79,740.92l-6.57,2.39c-.75.27-.42,1.48.34,1.21l6.57-2.4c.75-.27.42-1.48-.34-1.2Z" fill="#231f20"/><path d="M917.61,735.89l-10.18,3.7c-.75.28-.42,1.49.33,1.21l10.18-3.71c.75-.27.43-1.48-.33-1.2Z" fill="#231f20"/><path d="M832.16,756.72l-37.52,21.67c-.252589.192862-.321986.543657-.161856.818166s.499645.386772.791856.261834Q814,768.63,832.79,757.8c.252589-.192862.321986-.543657.161856-.818166s-.499645-.386772-.791856-.261834Z" fill="#231f20"/><path d="M844.26,749.73L835.18,755c-.252589.192862-.321986.543657-.161856.818166s.499645.386772.791856.261834l9.08-5.24c.252589-.192862.321986-.543657.161856-.818166s-.499645-.386772-.791856-.261834Z" fill="#231f20"/><path d="M869.08,735.41L847.29,748c-.295472.17397-.39397.554528-.22.85s.554528.39397.85.22l21.79-12.57c.252589-.192862.321986-.543657.161856-.818166s-.499645-.386772-.791856-.261834Z" fill="#231f20"/><path d="M875.74,731.56l-3.63,2.1c-.252589.192862-.321986.543657-.161856.818166s.499645.386772.791856.261834l3.63-2.1c.252589-.192862.321986-.543657.161856-.818166s-.499645-.386772-.791856-.261834Z" fill="#231f20"/><path d="M884.21,726.67l-5.45,3.15c-.252589.192862-.321986.543657-.161856.818166s.499645.386772.791856.261834l5.45-3.15c.252589-.192862.321986-.543657.161856-.818166s-.499645-.386772-.791856-.261834Z" fill="#231f20"/><path d="M895.67,720.05l-8.44,4.88c-.252589.192862-.321986.543657-.161856.818166s.499645.386772.791856.261834l8.44-4.88c.252589-.192862.321986-.543657.161856-.818166s-.499645-.386772-.791856-.261834Z" fill="#231f20"/><path d="M832.14,744.1l-39,32.69c-.62.52.27,1.4.89.88L833,745c.62-.52-.27-1.4-.89-.88Z" fill="#231f20"/><path d="M844.71,733.55l-9.43,7.91c-.61.52.28,1.4.89.88l9.42-7.91c.62-.52-.27-1.39-.88-.88Z" fill="#231f20"/><path d="M870.48,711.93q-11.33,9.48-22.62,19c-.62.52.27,1.4.88.88l22.62-19c.62-.52-.27-1.4-.88-.88Z" fill="#231f20"/><path d="M877.39,706.13l-3.77,3.16c-.62.52.27,1.4.88.88l3.77-3.16c.62-.52-.26-1.4-.88-.88Z" fill="#231f20"/><path d="M886.19,698.75l-5.66,4.75c-.62.52.27,1.39.88.88l5.66-4.75c.62-.52-.27-1.4-.88-.88Z" fill="#231f20"/><path d="M898.09,688.76l-8.77,7.36c-.62.52.27,1.4.88.88l8.77-7.36c.62-.51-.27-1.39-.88-.88Z" fill="#231f20"/><path d="M823,737.92l-31.41,37.43c-.51.61.37,1.5.89.88q15.69-18.72,31.41-37.43c.51-.61-.37-1.5-.89-.88Z" fill="#231f20"/><path d="M833.12,725.84q-3.79,4.53-7.6,9c-.51.62.37,1.51.89.89l7.59-9c.52-.62-.36-1.51-.88-.89Z" fill="#231f20"/><path d="M853.89,701.09l-18.23,21.73c-.52.61.36,1.5.88.88L854.78,702c.51-.61-.37-1.5-.89-.88Z" fill="#231f20"/><path d="M859.47,694.44l-3,3.62c-.52.62.36,1.51.88.89l3-3.62c.52-.62-.36-1.51-.88-.89Z" fill="#231f20"/><path d="M866.56,686L862,691.43c-.52.61.36,1.5.88.88l4.56-5.43c.52-.62-.36-1.51-.88-.89Z" fill="#231f20"/><path d="M876.15,674.56q-3.52,4.22-7.07,8.42c-.51.62.37,1.51.89.89l7.06-8.43c.52-.61-.36-1.5-.88-.88Z" fill="#231f20"/><path d="M814.72,730.93l-25.06,43.4c-.124938.292211-.012675.631725.261834.791856s.625304.090733.818166-.161856l25.06-43.4c.124938-.292211.012675-.631725-.261834-.791856s-.625304-.090733-.818166.161856Z" fill="#231f20"/><path d="M822.8,716.93l-6.06,10.5c-.124938.292211-.012675.631725.261834.791856s.625304.090733.818166-.161856l6.06-10.5c.124938-.292211.012675-.631725-.261834-.791856s-.625304-.090733-.818166.161856Z" fill="#231f20"/><path d="M839.37,688.22q-7.27,12.6-14.54,25.2c-.124938.292211-.012675.631725.261834.791856s.625304.090733.818166-.161856q7.26-12.6,14.54-25.2c.124938-.292211.012675-.631725-.261834-.791856s-.625304-.090733-.818166.161856Z" fill="#231f20"/><path d="M843.82,680.52l-2.43,4.2c-.124938.292211-.012675.631725.261834.791856s.625304.090733.818166-.161856l2.43-4.2c.124938-.292211.012675-.631725-.261834-.791856s-.625304-.090733-.818166.161856Z" fill="#231f20"/><path d="M849.48,670.72l-3.64,6.3c-.124938.292211-.012675.631725.261834.791856s.625304.090733.818166-.161856l3.64-6.3c.124938-.292211.012675-.631725-.261834-.791856s-.625304-.090733-.818166.161856Z" fill="#231f20"/><path d="M857.13,657.46c-1.87,3.26-3.76,6.51-5.64,9.77-.124938.292211-.012675.631725.261834.791856s.625304.090733.818166-.161856c1.88-3.26,3.77-6.51,5.64-9.77.124938-.292211.012675-.631725-.261834-.791856s-.625304-.090733-.818166.161856Z" fill="#231f20"/><path d="M803.51,730L787.6,773.67c-.28.76.93,1.09,1.2.33l15.92-43.71c.27-.76-.94-1.08-1.21-.33Z" fill="#231f20"/><path d="M808.64,715.86q-1.92,5.28-3.85,10.57c-.28.76.93,1.08,1.21.33q1.92-5.28,3.85-10.57c.27-.76-.94-1.09-1.21-.33Z" fill="#231f20"/><path d="M819.16,686.94q-4.62,12.69-9.23,25.39c-.28.75.93,1.08,1.2.33l9.24-25.39c.28-.75-.93-1.08-1.21-.33Z" fill="#231f20"/><path d="M822,679.19c-.52,1.41-1,2.82-1.54,4.23-.28.75.93,1.08,1.2.33.52-1.41,1-2.82,1.54-4.23.28-.76-.93-1.09-1.2-.33Z" fill="#231f20"/><path d="M825.58,669.32l-2.31,6.35c-.28.76.93,1.08,1.21.33l2.31-6.35c.27-.76-.94-1.09-1.21-.33Z" fill="#231f20"/><path d="M830.44,656l-3.58,9.84c-.27.76.93,1.09,1.21.33c1.19-3.28,2.39-6.55,3.57-9.83.28-.76-.93-1.09-1.2-.34Z" fill="#231f20"/><path d="M794.85,720.19l-9.36,53c-.14.79,1.07,1.13,1.21.34q4.66-26.52,9.35-53c.14-.78-1.07-1.12-1.2-.33Z" fill="#231f20"/><path d="M797.86,703.09q-1.12,6.4-2.26,12.82c-.14.79,1.06,1.13,1.2.33q1.14-6.4,2.26-12.82c.14-.79-1.06-1.13-1.2-.33Z" fill="#231f20"/><path d="M804,668q-2.71,15.39-5.42,30.79c-.14.79,1.06,1.13,1.2.33l5.43-30.79c.14-.79-1.07-1.12-1.21-.33Z" fill="#231f20"/><path d="M805.7,658.6l-.9,5.13c-.15.79,1.06,1.13,1.2.33q.46-2.56.91-5.13c.14-.79-1.07-1.13-1.21-.33Z" fill="#231f20"/><path d="M807.82,646.62q-.69,3.86-1.36,7.71c-.14.79,1.06,1.12,1.2.33.45-2.57.91-5.14,1.36-7.7.14-.79-1.06-1.13-1.2-.34Z" fill="#231f20"/><path d="M810.67,630.43c-.7,4-1.41,8-2.1,11.93-.14.79,1.06,1.13,1.2.33q1.05-6,2.11-11.93c.13-.79-1.07-1.13-1.21-.33Z" fill="#231f20"/><path d="M785.74,841.24v-43.33c-.039898-.314793-.307688-.550785-.625-.550785s-.585102.235992-.625.550785v43.33c.039898.314793.307688.550785.625.550785s.585102-.235992.625-.550785Z" fill="#231f20"/><path d="M785.74,855.22v-10.48c-.039898-.314793-.307688-.550785-.625-.550785s-.585102.235992-.625.550785v10.48c.039898.314793.307688.550785.625.550785s.585102-.235992.625-.550785Z" fill="#231f20"/><path d="M785.74,883.87v-25.15c-.039898-.314793-.307688-.550785-.625-.550785s-.585102.235992-.625.550785v25.15c.039898.314793.307688.550785.625.550785s.585102-.235992.625-.550785Z" fill="#231f20"/><path d="M785.74,891.56v-4.19c-.039898-.314793-.307688-.550785-.625-.550785s-.585102.235992-.625.550785v4.19c.039898.314793.307688.550785.625.550785s.585102-.235992.625-.550785Z" fill="#231f20"/><path d="M785.74,901.35v-6.29c-.039898-.314793-.307688-.550785-.625-.550785s-.585102.235992-.625.550785v6.29c.039898.314793.307688.550785.625.550785s.585102-.235992.625-.550785Z" fill="#231f20"/><path d="M785.74,914.58v-9.75c-.039898-.314793-.307688-.550785-.625-.550785s-.585102.235992-.625.550785v9.75c.039898.314793.307688.550785.625.550785s.585102-.235992.625-.550785Z" fill="#231f20"/><path d="M797.19,850.44q-4.66-26.51-9.34-53c-.14-.8-1.35-.46-1.21.33q4.68,26.49,9.34,53c.14.79,1.35.46,1.21-.33Z" fill="#231f20"/><path d="M800.2,867.53q-1.12-6.4-2.26-12.82c-.14-.79-1.34-.46-1.2.33q1.13,6.42,2.26,12.82c.14.8,1.34.46,1.2-.33Z" fill="#231f20"/><path d="M806.38,902.57Q803.67,887.2,801,871.8c-.14-.79-1.35-.45-1.21.34l5.43,30.77c.14.79,1.34.45,1.2-.34Z" fill="#231f20"/><path d="M808,912l-.9-5.13c-.14-.8-1.35-.46-1.21.33q.45,2.57.91,5.13c.14.79,1.34.45,1.2-.33Z" fill="#231f20"/><path d="M810.15,923.94c-.45-2.56-.9-5.13-1.36-7.69-.14-.79-1.34-.46-1.2.33.45,2.56.9,5.13,1.36,7.69.14.8,1.34.46,1.2-.33Z" fill="#231f20"/><path d="M813,940.12l-2.1-11.92c-.14-.79-1.34-.46-1.2.33l2.1,11.92c.14.8,1.34.46,1.2-.33Z" fill="#231f20"/><path d="M805.79,840.45l-15.9-43.67c-.27-.75-1.48-.43-1.2.33l15.9,43.68c.27.75,1.48.42,1.2-.34Z" fill="#231f20"/><path d="M810.92,854.54L807.07,844c-.27-.75-1.48-.43-1.2.33l3.84,10.57c.28.75,1.48.42,1.21-.34Z" fill="#231f20"/><path d="M821.43,883.42l-9.23-25.35c-.27-.76-1.48-.43-1.2.33q4.61,12.68,9.22,25.36c.28.75,1.49.42,1.21-.34Z" fill="#231f20"/><path d="M824.25,891.17c-.51-1.41-1-2.81-1.54-4.22-.27-.75-1.48-.43-1.2.33.51,1.41,1,2.82,1.54,4.23.27.75,1.48.42,1.2-.34Z" fill="#231f20"/><path d="M827.84,901l-2.31-6.33c-.27-.76-1.48-.43-1.2.33l2.31,6.34c.27.75,1.48.42,1.2-.34Z" fill="#231f20"/><path d="M832.69,914.37l-3.57-9.83c-.28-.75-1.48-.42-1.21.34l3.58,9.82c.27.75,1.48.43,1.2-.33Z" fill="#231f20"/><path d="M815.84,837.38q-12-20.88-24.11-41.76c-.192862-.252589-.543657-.321986-.818166-.161856s-.386772.499645-.261834.791856q12.06,20.88,24.11,41.76c.192862.252589.543657.321986.818166.161856s.386772-.499645.261834-.791856Z" fill="#231f20"/><path d="M823.62,850.84q-2.93-5-5.84-10.1c-.17397-.295472-.554528-.39397-.85-.22s-.39397.554528-.22.85q2.91,5.05,5.83,10.11c.19018.266089.55235.342394.833722.175656s.388355-.521062.246278-.815656Z" fill="#231f20"/><path d="M839.56,878.46l-14-24.25c-.192862-.252589-.543657-.321986-.818166-.161856s-.386772.499645-.261834.791856l14,24.25c.192862.252589.543657.321986.818166.161856s.386772-.499645.261834-.791856Z" fill="#231f20"/><path d="M843.84,885.86l-2.34-4c-.192862-.252589-.543657-.321986-.818166-.161856s-.386772.499645-.261834.791856l2.34,4c.192862.252589.543657.321986.818166.161856s.386772-.499645.261834-.791856Z" fill="#231f20"/><path d="M849.28,895.29l-3.5-6.06c-.192862-.252589-.543657-.321986-.818166-.161856s-.386772.499645-.261834.791856l3.5,6.06c.192862.252589.543657.321986.818166.161856s.386772-.499645.261834-.791856Z" fill="#231f20"/><path d="M856.64,908l-5.43-9.39c-.17397-.295472-.554528-.39397-.85-.22s-.39397.554528-.22.85q2.7,4.69,5.42,9.39c.192862.252589.543657.321986.818166.161856s.386772-.499645.261834-.791856Z" fill="#231f20"/><path d="M828.64,836.24l-35.31-42.07c-.52-.62-1.4.27-.88.88l35.3,42.08c.52.61,1.4-.27.89-.89Z" fill="#231f20"/><path d="M840,849.81l-8.54-10.18c-.51-.61-1.39.27-.88.89l8.54,10.18c.52.62,1.4-.27.88-.89Z" fill="#231f20"/><path d="M863.37,877.64q-10.25-12.23-20.5-24.43c-.52-.62-1.4.27-.88.88q10.25,12.23,20.5,24.43c.52.62,1.39-.27.88-.88Z" fill="#231f20"/><path d="M869.63,885.1c-1.14-1.36-2.28-2.71-3.41-4.07-.52-.62-1.4.27-.89.88l3.42,4.07c.52.62,1.4-.27.88-.88Z" fill="#231f20"/><path d="M877.6,894.6c-1.7-2-3.41-4.07-5.12-6.11-.52-.61-1.4.27-.88.89l5.12,6.1c.52.62,1.4-.27.88-.88Z" fill="#231f20"/><path d="M888.39,907.45L880.44,898c-.52-.62-1.4.27-.88.89l7.94,9.46c.52.62,1.4-.27.89-.88Z" fill="#231f20"/><path d="M833.86,825.36l-39.09-32.79c-.61-.52-1.5.36-.88.88L833,826.25c.62.51,1.5-.37.89-.89Z" fill="#231f20"/><path d="M846.46,835.94L837,828c-.61-.52-1.5.36-.89.88l9.46,7.94c.61.51,1.5-.37.88-.89Z" fill="#231f20"/><path d="M872.31,857.63l-22.69-19c-.62-.52-1.51.36-.89.88l22.7,19c.61.52,1.5-.36.88-.88Z" fill="#231f20"/><path d="M879.24,863.45l-3.78-3.18c-.61-.51-1.5.37-.88.89l3.78,3.17c.61.52,1.5-.36.88-.88Z" fill="#231f20"/><path d="M888.07,870.85l-5.68-4.76c-.61-.51-1.5.37-.88.88l5.67,4.76c.62.52,1.5-.36.89-.88Z" fill="#231f20"/><path d="M900,880.86l-8.79-7.37c-.62-.52-1.51.36-.89.88l8.8,7.38c.61.51,1.5-.37.88-.89Z" fill="#231f20"/><path d="M837.17,814.54l-41.38-23.89c-.295472-.17397-.67603-.075472-.85.22s-.075472.67603.22.85l41.38,23.9c.292211.124938.631725.012675.791856-.261834s.090733-.625304-.161856-.818166Z" fill="#231f20"/><path d="M850.52,822.24l-10-5.78c-.292211-.124938-.631725-.012675-.791856.261834s-.090733.625304.161856.818166l10,5.78c.292211.124938.631725.012675.791856-.261834s.090733-.625304-.161856-.818166Z" fill="#231f20"/><path d="M877.89,838l-24-13.87c-.292211-.124938-.631725-.012675-.791856.261834s-.090733.625304.161856.818166l24,13.87c.292211.124938.631725.012675.791856-.261834s.090733-.625304-.161856-.818166Z" fill="#231f20"/><path d="M885.23,842.28l-4-2.31c-.292211-.124938-.631725-.012675-.791856.261834s-.090733.625304.161856.818166l4,2.31c.292211.124938.631725.012675.791856-.261834s.090733-.625304-.161856-.818166Z" fill="#231f20"/><path d="M894.57,847.68l-6-3.47c-.292211-.124938-.631725-.012675-.791856.261834s-.090733.625304.161856.818166l6,3.47c.292211.124938.631725.012675.791856-.261834s.090733-.625304-.161856-.818166Z" fill="#231f20"/><path d="M907.21,855l-9.31-5.37c-.292211-.124938-.631725-.012675-.791856.261834s-.090733.625304.161856.818166l9.31,5.37c.292211.124938.631725.012675.791856-.261834s.090733-.625304-.161856-.818166Z" fill="#231f20"/><path d="M847.68,807.24l-51.23-18.65c-.76-.28-1.09.93-.34,1.2l51.24,18.65c.76.28,1.09-.93.33-1.2Z" fill="#231f20"/><path d="M864.21,813.25l-12.39-4.51c-.76-.28-1.09.93-.34,1.2l12.4,4.52c.76.27,1.08-.94.33-1.21Z" fill="#231f20"/><path d="M898.09,825.58l-29.74-10.83c-.76-.27-1.09.93-.34,1.21l29.75,10.83c.76.27,1.08-.93.33-1.21Z" fill="#231f20"/><path d="M907.18,828.89l-5-1.8c-.75-.28-1.08.93-.33,1.2l5,1.81c.76.27,1.08-.94.33-1.21Z" fill="#231f20"/><path d="M918.75,833.1l-7.44-2.7c-.76-.28-1.08.93-.33,1.2l7.44,2.71c.76.27,1.08-.94.33-1.21Z" fill="#231f20"/><path d="M934.4,838.8l-11.53-4.2c-.76-.28-1.08.93-.33,1.21L934.07,840c.76.28,1.08-.93.33-1.2Z" fill="#231f20"/><path d="M728,807.47L773.26,791c.75-.27.42-1.48-.33-1.2l-45.25,16.46c-.75.28-.42,1.48.34,1.21Z" fill="#231f20"/><path d="M713.42,812.78l11-4c.75-.27.42-1.48-.33-1.21l-10.95,4c-.75.27-.42,1.48.33,1.2Z" fill="#231f20"/><path d="M683.5,823.67l26.27-9.56c.75-.27.43-1.48-.33-1.2l-26.27,9.56c-.75.27-.43,1.48.33,1.2Z" fill="#231f20"/><path d="M675.47,826.59l4.38-1.59c.75-.27.43-1.48-.33-1.2l-4.38,1.59c-.75.27-.43,1.48.33,1.2Z" fill="#231f20"/><path d="M665.26,830.31l6.57-2.39c.75-.28.43-1.48-.33-1.21l-6.57,2.4c-.75.27-.43,1.48.33,1.2Z" fill="#231f20"/><path d="M651.44,835.34l10.18-3.7c.75-.28.43-1.49-.33-1.21l-10.18,3.71c-.75.27-.43,1.48.33,1.2Z" fill="#231f20"/><path d="M736.89,814.5l37.53-21.66c.252589-.192862.321986-.543657.161856-.818166s-.499645-.386772-.791856-.261834l-37.53,21.67c-.295472.17397-.39397.554528-.22.85s.554528.39397.85.22Z" fill="#231f20"/><path d="M724.79,821.49l9.08-5.24c.295472-.17397.39397-.554528.22-.85s-.554528-.39397-.85-.22q-4.54,2.61-9.08,5.23c-.252589.192862-.321986.543657-.161856.818166s.499645.386772.791856.261834Z" fill="#231f20"/><path d="M700,835.82l21.79-12.58c.252589-.192862.321986-.543657.161856-.818166s-.499645-.386772-.791856-.261834l-21.79,12.58c-.252589.192862-.321986.543657-.161856.818166s.499645.386772.791856.261834Z" fill="#231f20"/><path d="M693.32,839.67l3.63-2.1c.252589-.192862.321986-.543657.161856-.818166s-.499645-.386772-.791856-.261834l-3.64,2.1c-.266089.19018-.342394.55235-.175656.833722s.521062.388355.815656.246278Z" transform="translate(0 0.000001)" fill="#231f20"/><path d="M684.84,844.56l5.45-3.15c.252589-.192862.321986-.543657.161856-.818166s-.499645-.386772-.791856-.261834l-5.45,3.15c-.252589.192862-.321986.543657-.161856.818166s.499645.386772.791856.261834Z" fill="#231f20"/><path d="M673.38,851.18l8.45-4.88c.252589-.192862.321986-.543657.161856-.818166s-.499645-.386772-.791856-.261834l-8.45,4.88c-.252589.192862-.321986.543657-.161856.818166s.499645.386772.791856.261834Z" fill="#231f20"/><path d="M736.91,827.13l39-32.69c.62-.52-.27-1.4-.88-.88l-39,32.69c-.62.52.27,1.4.88.88Z" fill="#231f20"/><path d="M724.35,837.68c3.13-2.64,6.28-5.27,9.42-7.91.62-.52-.27-1.4-.89-.88l-9.42,7.9c-.62.52.27,1.4.89.89Z" fill="#231f20"/><path d="M698.58,859.3l22.62-19c.61-.52-.27-1.4-.89-.89l-22.62,19c-.62.51.27,1.39.89.88Z" fill="#231f20"/><path d="M691.66,865.1l3.77-3.16c.62-.52-.27-1.4-.88-.89l-3.77,3.17c-.62.52.27,1.4.88.88Z" fill="#231f20"/><path d="M682.87,872.48l5.65-4.75c.62-.52-.27-1.4-.88-.88L682,871.6c-.62.52.27,1.4.89.88Z" fill="#231f20"/><path d="M671,882.47l8.76-7.36c.62-.52-.27-1.4-.88-.88l-8.77,7.35c-.61.52.27,1.4.89.89Z" fill="#231f20"/><path d="M746.06,833.31l31.41-37.43c.52-.61-.36-1.5-.88-.88l-31.41,37.43c-.52.61.36,1.5.88.88Z" fill="#231f20"/><path d="M735.93,845.39l7.6-9.06c.51-.61-.36-1.5-.88-.88l-7.6,9c-.51.62.37,1.51.88.89Z" fill="#231f20"/><path d="M715.16,870.14q9.12-10.86,18.23-21.73c.52-.61-.36-1.5-.88-.88l-18.23,21.73c-.52.61.36,1.5.88.88Z" fill="#231f20"/><path d="M709.59,876.79l3-3.63c.51-.61-.37-1.5-.89-.88q-1.51,1.82-3,3.62c-.51.62.37,1.5.89.89Z" fill="#231f20"/><path d="M702.5,885.24q2.26-2.73,4.55-5.44c.52-.61-.36-1.5-.88-.89l-4.56,5.44c-.51.62.37,1.51.89.89Z" fill="#231f20"/><path d="M692.9,896.67q3.54-4.21,7.07-8.42c.51-.62-.37-1.51-.88-.89L692,895.79c-.51.61.36,1.5.88.88Z" fill="#231f20"/><path d="M754.33,840.3l25.07-43.4c.124938-.292211.012675-.631725-.261834-.791856s-.625304-.090733-.818166.161856l-25.06,43.4c-.17397.295472-.075472.67603.22.85s.67603.075472.85-.22Z" fill="#231f20"/><path d="M746.26,854.3q3-5.25,6.06-10.5c.124938-.292211.012675-.631725-.261834-.791856s-.625304-.090733-.818166.161856c-2,3.5-4,7-6.06,10.5-.124938.292211-.012675.631725.261834.791856s.625304.090733.818166-.161856Z" fill="#231f20"/><path d="M729.68,883l14.55-25.2c.124938-.292211.012675-.631725-.261834-.791856s-.625304-.090733-.818166.161856l-14.55,25.2c-.124938.292211-.012675.631725.261834.791856s.625304.090733.818166-.161856Z" fill="#231f20"/><path d="M725.23,890.71l2.43-4.2c.124938-.292211.012675-.631725-.261834-.791856s-.625304-.090733-.818166.161856l-2.43,4.2c-.124938.292211-.012675.631725.261834.791856s.625304.090733.818166-.161856Z" fill="#231f20"/><path d="M719.58,900.51l3.63-6.3c.142077-.294594.035093-.648917-.246278-.815656s-.643542-.090433-.833722.175656l-3.63,6.31c-.124938.292211-.012675.631725.261834.791856s.625304.090733.818166-.161856Z" fill="#231f20"/><path d="M711.92,913.77l5.64-9.77c.124938-.292211.012675-.631725-.261834-.791856s-.625304-.090733-.818166.161856l-5.64,9.77c-.124938.292211-.012675.631725.261834.791856s.625304.090733.818166-.161856Z" fill="#231f20"/><path d="M765.54,841.27l15.92-43.71c.27-.76-.94-1.09-1.21-.34q-7.95,21.87-15.91,43.72c-.28.76.93,1.08,1.2.33Z" fill="#231f20"/><path d="M760.41,855.37l3.85-10.57c.28-.76-.93-1.08-1.2-.33q-1.93,5.28-3.85,10.57c-.28.76.93,1.08,1.2.33Z" fill="#231f20"/><path d="M749.89,884.29l9.24-25.39c.27-.76-.94-1.08-1.21-.33q-4.62,12.69-9.24,25.38c-.27.76.94,1.09,1.21.34Z" fill="#231f20"/><path d="M747.07,892c.51-1.41,1-2.82,1.54-4.23.28-.76-.93-1.08-1.21-.33l-1.54,4.23c-.28.76.93,1.08,1.21.33Z" fill="#231f20"/><path d="M743.47,901.91l2.31-6.35c.28-.76-.93-1.08-1.2-.33l-2.31,6.35c-.28.76.93,1.08,1.2.33Z" fill="#231f20"/><path d="M738.61,915.27c1.19-3.29,2.39-6.56,3.58-9.84.28-.76-.93-1.09-1.2-.34-1.19,3.29-2.39,6.56-3.58,9.84-.28.76.93,1.09,1.2.34Z" fill="#231f20"/><path d="M774.21,851q4.68-26.52,9.35-53c.14-.78-1.06-1.12-1.2-.33l-9.36,53c-.14.78,1.07,1.12,1.21.33Z" fill="#231f20"/><path d="M771.2,868.14q1.11-6.4,2.26-12.82c.14-.79-1.07-1.13-1.21-.34q-1.12,6.42-2.26,12.83c-.14.79,1.07,1.13,1.21.33Z" fill="#231f20"/><path d="M765,903.22l5.43-30.79c.14-.79-1.07-1.13-1.21-.33q-2.72,15.39-5.42,30.79c-.14.79,1.06,1.12,1.2.33Z" fill="#231f20"/><path d="M763.35,912.63q.45-2.57.91-5.13c.14-.79-1.07-1.13-1.21-.33l-.9,5.13c-.14.79,1.06,1.12,1.2.33Z" fill="#231f20"/><path d="M761.24,924.6q.68-3.84,1.36-7.7c.13-.79-1.07-1.12-1.21-.33-.45,2.57-.9,5.13-1.36,7.7-.14.79,1.07,1.13,1.21.33Z" fill="#231f20"/><path d="M758.38,940.8q1.05-6,2.11-11.93c.14-.79-1.07-1.13-1.21-.33l-2.1,11.93c-.14.79,1.06,1.13,1.2.33Z" fill="#231f20"/></g></g><g transform="translate(0-9.999984)"><polygon points="620.53,494.61 642.09,482.11 647.01,409.44 454.03,425.11 316.82,414.65 342.36,499.45 368.7,499.45 378.56,519.11 447.03,656.61 488.25,683.11 505.03,742.61 518.03,703.61 530.03,700.11 551.75,625.11 588.03,586.99 592.36,506.9 620.53,494.61" fill="#fdfbee"/><path d="M504.91,747.72l-18-63.65-41.09-26.42-.18-.37-68.48-137.5L367.77,501h-26.52l-.32-1.07L314.75,413L454,423.61L648.6,407.8L643.53,483l-22.4,13-27.32,11.92-4.31,79.71-36.41,38.26-21.85,75.44-12,3.51Zm-56.72-92.14l41.35,26.58l15.61,55.35l11.7-35.12l12-3.48l21.59-74.56.25-.27l35.9-37.72l4.36-80.46l28.93-12.63l20.8-12l4.75-70.15L454,426.62h-.11l-135-10.3L343.48,498h26.14l10.28,20.49Z" fill="#231f20"/><polygon points="645.61,409.44 453.96,425.11 318.95,416.11 323.94,433.37 323.94,433.37 380.51,457.61 456.67,662.86 471.96,456.11 644,433 645.61,409.44" fill="#d8d5c5"/><polygon points="620.53,494.61 611.7,569.45 588.13,585.13 592.36,506.9 620.53,494.61" fill="#bdb8a1"/><path d="M586.47,588l4.45-82.14l31.41-13.71-9.23,78.12Zm7.34-80.13l-4,74.32l20.5-13.65L618.73,497Z" fill="#231f20"/><polygon points="584.92,590.25 570.27,649.45 561.03,651.66 561.03,678.11 537.43,712.11 528.03,712.11 505.03,742.61 518.03,703.61 530.03,700.11 551.75,625.11 584.92,590.25" fill="#bdb8a1"/><path d="M500.71,750.84l16.14-48.45l12-3.48l21.59-74.56.25-.27l37.08-39-16.27,65.61-9,2.15v25.74l-24.32,35h-9.43Zm18.49-46l-9.85,29.56l17.93-23.78h9.36l22.89-33v-27.15l9.5-2.27l13.08-52.81-29,30.49-21.85,75.44Z" fill="#231f20"/><path d="M493.15,484.17c0,2.285212-1.376578,4.345407-3.487839,5.219919s-4.541426.391123-6.157314-1.224766-2.099279-4.046054-1.224766-6.157314s2.934707-3.487839,5.219919-3.487839c1.499287-.002661,2.937933.591751,3.998091,1.651909s1.65457,2.498804,1.651909,3.998091Z" fill="#d8d5c5"/><path d="M550.22,475.3v-15.3c0-.690356-.559644-1.25-1.25-1.25s-1.25.559644-1.25,1.25v15.3c0,.690356.559644,1.25,1.25,1.25s1.25-.559644,1.25-1.25Z" fill="#d8d5c5"/><path d="M550.22,512.24v-18.82c0-.690356-.559644-1.25-1.25-1.25s-1.25.559644-1.25,1.25v18.82c0,.690356.559644,1.25,1.25,1.25s1.25-.559644,1.25-1.25Z" fill="#d8d5c5"/><path d="M550.22,620.29v-89.23c0-.690356-.559644-1.25-1.25-1.25s-1.25.559644-1.25,1.25v89.23c0,.690356.559644,1.25,1.25,1.25s1.25-.559644,1.25-1.25Z" fill="#d8d5c5"/><path d="M521.06,521.63v42c0,.690356.559644,1.25,1.25,1.25s1.25-.559644,1.25-1.25v-42c0-.690356-.559644-1.25-1.25-1.25s-1.25.559644-1.25,1.25Z" fill="#d8d5c5"/><path d="M518.39,603.63v30c0,.690356.559644,1.25,1.25,1.25s1.25-.559644,1.25-1.25v-30c0-.690356-.559644-1.25-1.25-1.25s-1.25.559644-1.25,1.25Z" fill="#d8d5c5"/><path d="M493.72,540.29v66.71c0,.690356.559644,1.25,1.25,1.25s1.25-.559644,1.25-1.25v-66.71c0-.690356-.559644-1.25-1.25-1.25s-1.25.559644-1.25,1.25Z" fill="#d8d5c5"/><circle r="11.5" transform="translate(606.97 448.96)" fill="#d8d5c5"/><circle r="3.67" transform="translate(625.31 465.96)" fill="#d8d5c5"/><path d="M607,474.63c-.000005,1.776498-1.070679,3.377881-2.712338,4.056779s-3.530658.301472-4.785398-.956133-1.627859-3.147461-.945218-4.787567s2.28646-2.707126,4.062954-2.703079c1.163383-.000003,2.278971.462832,3.100669,1.286406s1.281987,1.940214,1.279331,3.103594Z" fill="#d8d5c5"/><circle r="10" transform="translate(472.97 493.88)" fill="#d8d5c5"/><path d="M488.31,462.29c.020257,2.166987-1.271124,4.131337-3.268556,4.971877s-4.304783.390572-5.84003-1.138892-1.993918-3.8351-1.160921-5.83569s2.792459-3.299375,4.959507-3.287295c2.918084.016266,5.282722,2.371998,5.31,5.29Z" fill="#d8d5c5"/><path d="M479.8,557.29c0,4.17-3.06,7.55-6.83,7.55s-6.82-3.38-6.82-7.55s3.06-7.54,6.82-7.54s6.83,3.37,6.83,7.54Z" fill="#d8d5c5"/><circle r="7.95" transform="matrix(.22325-.974761 0.974761 0.22325 353.954044 463.922918)" fill="#d8d5c5"/><circle r="4.25" transform="translate(362.97 452.88)" fill="#d8d5c5"/><polygon points="372.65,353.17 420.65,225.66 437.91,223.38 436.19,228.76 450.14,228.39 453.81,215.56 450.74,229.04 460.74,259.17 466.99,249.29 468.61,240.29 468.61,249.16 507.49,256.67 530.49,258.67 526.99,252.91 538.74,251.91 605.49,392.17 356.99,396.17 372.65,353.17" fill="#bdb8a1"/><polygon points="369.94,365.79 367.13,364.75 429.29,197.34 446.04,194.76 446.49,197.73 431.49,200.04 369.94,365.79" fill="#231f20"/><polygon points="536.03,270.2 512.94,221.24 490.97,221.24 490.97,218.24 514.84,218.24 538.75,268.92 536.03,270.2" fill="#231f20"/><polygon points="604.12,392.79 533.82,239.33 520.41,235.82 521.17,232.92 535.96,236.78 536.25,237.43 606.85,391.54 604.12,392.79" fill="#231f20"/><polygon points="430.39,198.69 420.52,225.26 438.02,223.06 436.16,228.83 450.14,228.39 450.82,229.31 460.76,259.43 466.99,249.29 468.94,249.23 507.74,256.69 530.49,258.67 526.99,252.91 538.74,251.91 534.89,238.06 522.14,234.72 513.89,219.74 492.39,219.74 471.72,173.85 451.06,182.39 446.26,196.24 430.39,198.69" fill="#fdfbee"/><path d="M460.35,263l-10.94-33.06-15.32.49l1.78-5.56-17.62,2.22l11-29.72l15.85-2.44l4.72-13.64l22.63-9.35l20.87,46.33h21.42l8.37,15.19l13,3.39l4.57,16.44-11.14.94l3.78,6.22-25.85-2.26-38.64-7.43h-1ZM508,255.2l19.71,1.71-3.21-5.28l12.36-1.06-3.14-11.28L521.14,236L513,221.24h-21.58L471,175.8l-18.7,7.72-4.86,14.07L431.49,200l-8.7,23.42l17.37-2.19-1.92,6l12.63-.4l1.3,1.73.08.24l8.93,27l4.95-8.07l2.93-.1Z" fill="#231f20"/><polygon points="567.02,395.33 470.26,176.63 452.26,183.53 418.82,287.85 415.96,286.93 449.85,181.25 471.85,172.81 569.76,394.12 567.02,395.33" fill="#231f20"/><path d="M430.52,288.17q-7.12,23.63-14.26,47.24c-.47,1.55,1.95,2.2,2.41.66l14.26-47.23c.185015-.665503-.204497-1.354985-.87-1.54s-1.354985.204497-1.54.87Z" fill="#231f20"/><path d="M440,256.91q-2.11,7-4.22,14c-.47,1.55,1.95,2.2,2.41.66q2.12-7,4.22-14c.157508-.656269-.234379-1.319066-.885316-1.497331s-1.325842.192382-1.524684.837331Z" fill="#231f20"/><path d="M441.5,288.71l-6.84,22.66c-.47,1.54,1.95,2.2,2.41.66l6.84-22.66c.47-1.54-2-2.2-2.41-.66Z" fill="#231f20"/><path d="M431.74,319.89q-1.5,4.94-3,9.89c-.157508.656269.234379,1.319066.885316,1.497331s1.325842-.192382,1.524684-.837331q1.5-4.94,3-9.89c.47-1.55-1.94-2.2-2.41-.66Z" fill="#231f20"/><polygon points="509.7,258.36 519.52,259.21 579.36,391.7 568.69,391.7 509.7,258.36" fill="#ada78e"/><path d="M496.12,280.28c0,5.597757-3.372008,10.644324-8.543661,12.786493s-11.124485.958077-15.082697-3.000135-5.142304-9.911043-3.000135-15.082697s7.188736-8.543661,12.786493-8.543661c7.643621,0,13.84,6.196379,13.84,13.84Z" fill="#ada78e"/><path d="M506,300.37c0,3.032043-2.457957,5.49-5.49,5.49s-5.49-2.457957-5.49-5.49s2.457957-5.49,5.49-5.49c1.456039,0,2.852442.578409,3.882016,1.607984s1.607984,2.425977,1.607984,3.882016Z" fill="#ada78e"/><path d="M485.25,308.89c0,2.209139-1.790861,4-4,4s-4-1.790861-4-4s1.790861-4,4-4s4,1.790861,4,4Z" fill="#ada78e"/><circle r="1.5" transform="translate(517.03 325.03)" fill="#ada78e"/><circle r="3.75" transform="translate(529.53 347.61)" fill="#ada78e"/><circle r="4" transform="translate(489.28 358.11)" fill="#ada78e"/><circle r="4" transform="translate(451.28 351.36)" fill="#ada78e"/><path d="M375.79,392.78h78.63c2.219281.013441,4.192486-1.409855,4.88-3.52c1.148722-1.664299,1.765866-3.637764,1.77-5.66-.027353-5.511478-4.488522-9.972647-10-10-.982235.004187-1.958811.14899-2.9.43-2.307492-6.653495-8.58778-11.105548-15.63-11.08h-.77c.079793-.636891.11987-1.27813.12-1.92c0-8.880739-7.199261-16.08-16.08-16.08s-16.08,7.199261-16.08,16.08v.23c-5.141561-1.582285-10.728639-.637626-15.064206,2.547046s-6.907945,8.233502-6.935794,13.612954c0,.5,0,1,.07,1.54-2.370466.137972-4.545132,1.360501-5.894981,3.313973s-1.724291,4.419956-1.015019,6.686027c.588839,2.230099,2.59363,3.793018,4.9,3.82Z" fill="#e0dfd3"/><path d="M454.42,393.78h-78.63c-2.831653.024845-5.311801-1.893136-6-4.64-.247367-.810207-.372082-1.652874-.37-2.5.002289-4.223926,3.0316-7.838876,7.19-8.58c0-.22,0-.44,0-.66.003292-5.483377,2.512753-10.664494,6.813117-14.066595s9.919899-4.651986,15.256883-3.393405c.292711-9.435785,8.179215-16.847711,17.615-16.555s16.847711,8.179215,16.555,17.615c0,.3,0,.6,0,.9c7.002914.132311,13.258312,4.411287,15.92,10.89c4.392992-.955285,8.925189.858803,11.445793,4.58137s2.522269,8.604343.004207,12.32863c-.868165,2.455641-3.195443,4.09276-5.8,4.08ZM394.6,361.46c-8.813177-.000062-15.966951,7.126884-16,15.94-.001864.480894.021501.961554.07,1.44l.09,1-1,.07c-3.544907.211697-6.311023,3.148778-6.31,6.7-.00364.6774.094109,1.351532.29,2c.445267,1.852538,2.09477,3.163894,4,3.18h78.63c1.786334.002869,3.372043-1.143038,3.93-2.84l.13-.25c2.150723-3.14766,2.084986-7.308891-.164089-10.387045s-6.193518-4.405382-9.845911-3.312955l-.92.28-.31-.91c-2.185524-6.240204-8.078145-10.415982-14.69-10.41-.24,0-.48,0-.72,0l-1.18.05.14-1.17c.071819-.597334.108548-1.198366.11-1.8c0-8.328454-6.751546-15.08-15.08-15.08s-15.08,6.751546-15.08,15.08v1.6l-1.31-.41c-1.54505-.497649-3.156832-.757287-4.78-.77Z" fill="#231f20"/><path d="M323.29,392.78h78.63c2.219281.013441,4.192486-1.409855,4.88-3.52c1.148722-1.664299,1.765866-3.637764,1.77-5.66-.027353-5.511478-4.488522-9.972647-10-10-.982235.004187-1.958811.14899-2.9.43-2.298552-6.683263-8.602611-11.156852-15.67-11.12h-.77c.079793-.636891.11987-1.27813.12-1.92c0-8.880739-7.199261-16.079999-16.08-16.079999s-16.08,7.19926-16.08,16.079999v.23c-5.141561-1.582285-10.728639-.637626-15.064206,2.547046s-6.907945,8.233502-6.935794,13.612954c0,.5,0,1,.07,1.54-2.370466.137972-4.545132,1.360501-5.894981,3.313973s-1.724291,4.419956-1.015019,6.686027c.57748,2.260212,2.607223,3.846206,4.94,3.86Z" fill="#fefcee"/><path d="M401.92,393.78h-78.63c-2.831653.024845-5.311801-1.893136-6-4.64-.247367-.810207-.372082-1.652874-.37-2.5.002289-4.223926,3.0316-7.838876,7.19-8.58c0-.22,0-.44,0-.66.003292-5.483377,2.512753-10.664494,6.813117-14.066595s9.919899-4.651986,15.256883-3.393405c.292711-9.435785,8.179215-16.847711,17.615-16.555s16.847711,8.179215,16.555,17.615c0,.3,0,.6,0,.9c7.002914.132311,13.258312,4.411287,15.92,10.89c4.392992-.955285,8.925189.858803,11.445793,4.58137s2.522269,8.604343.004207,12.32863c-.868165,2.455641-3.195443,4.09276-5.8,4.08ZM342.1,361.46c-8.813177-.000062-15.966951,7.126884-16,15.94-.001864.480894.021501.961554.07,1.44l.09,1-1,.07c-3.544907.211697-6.311023,3.148778-6.31,6.7-.00364.6774.094109,1.351532.29,2c.445267,1.852538,2.09477,3.163894,4,3.18h78.63c1.786334.002869,3.372043-1.143038,3.93-2.84l.13-.25c2.150723-3.14766,2.084986-7.308891-.164089-10.387045s-6.193518-4.405382-9.845911-3.312955l-.92.28-.31-.91c-2.168538-6.259938-8.065094-10.458575-14.69-10.46-.24,0-.48,0-.72,0l-1.18.05.14-1.17c.071819-.597334.108548-1.198366.11-1.8c0-8.328454-6.751546-15.08-15.08-15.08s-15.08,6.751546-15.08,15.08v1.6l-1.31-.41c-1.547675-.480693-3.159398-.723463-4.78-.72Z" fill="#231f20"/><path d="M321.4,392.78L316,412.13l138.06,13l215.44-17.5c0,0-14.5-21.52-84.5-14.85l-103.75-1.42c0,0-21.92,2.91-35.25,2Z" fill="#fffff2"/><path d="M454,426.12h-.08L314.68,413l6-21.24l125.39.58c1.75.12,3.69.18,5.81.18c9.798792-.191454,19.579912-.915858,29.3-2.17h.07L585,391.78c9-.85,17.47-1.28,25.33-1.28c48.3,0,59.53,15.88,60,16.56l1,1.41-1.7.14ZM317.25,411.25L454,424.11l213.33-17.33c-4-3.83-18.46-14.28-57-14.28-7.82,0-16.29.43-25.2,1.28h-.13l-103.68-1.41c-9.783666,1.2547-19.628056,1.979092-29.49,2.17-2.17,0-4.15-.06-5.89-.18l-123.8-.58Z" fill="#231f20"/><path d="M426.53,392.78c0,0-27.91-1.87-48.5,26.54l11.5,1.29c0,0,18.34-24.83,70.5-26.83Z" fill="#bdb8a1"/><path d="M390,421.67l-13.78-1.55l1-1.39c18.61-25.67,43.44-27,48.23-27c.75,0,1.15,0,1.15,0l33.46,1v2c-51.09,2-69.55,26.18-69.74,26.43Zm-10.12-3.15l9.22,1c2.51-3.11,17.66-19.93,54.24-25.28l-16.83-.5c-.05,0-.41,0-1.05,0-4.54.02-27.68,1.26-45.59,24.78Z" fill="#231f20"/><polygon points="652.88,342.8 669.84,369.99 670.87,368.33 652.88,339.49 652.88,328.95 665.42,349.05 666.45,347.4 652.88,325.65 652.88,315.12 667.59,338.7 668.62,337.05 663.11,328.22 663.12,328.21 652.88,311.8 652.88,301.27 675.69,337.85 676.72,336.19 652.88,297.97 652.88,287.43 669.84,314.62 670.87,312.97 652.88,284.13 652.88,273.59 665.42,293.69 666.45,292.04 652.88,270.28 652.88,259.74 662.08,274.49 663.11,272.83 652.11,255.2 641.2,272.7 641.11,272.83 642.14,274.49 651.34,259.74 651.34,270.28 637.86,291.9 637.77,292.04 638.8,293.69 651.34,273.59 651.34,284.13 633.44,312.84 633.35,312.97 634.38,314.62 651.34,287.43 651.34,297.97 627.59,336.06 627.51,336.19 628.54,337.85 651.34,301.27 651.34,311.8 641.2,328.07 635.61,337.05 636.64,338.7 651.34,315.12 651.34,325.65 637.86,347.27 637.77,347.4 638.8,349.05 651.34,328.95 651.34,339.49 633.44,368.2 633.35,368.33 634.38,369.99 651.34,342.8 651.34,353.33 627.59,391.42 627.51,391.56 628.54,393.21 651.34,356.64 651.34,367.18 635.69,392.28 635.61,392.41 636.64,394.06 651.34,370.49 651.34,403.93 652.88,403.93 652.88,370.49 667.59,394.06 668.62,392.41 652.88,367.18 652.88,356.64 675.69,393.21 676.72,391.56 652.88,353.33 652.88,342.8" fill="#231f20"/><polygon points="613.11,362.15 623.1,378.17 623.98,376.75 613.11,359.31 613.11,353.81 620.43,365.56 621.32,364.14 613.11,350.97 613.11,345.48 621.74,359.32 622.62,357.9 619.31,352.59 619.31,352.58 613.11,342.63 613.11,337.14 626.51,358.64 626.62,358.81 627.5,357.39 613.11,334.3 613.11,328.81 623.1,344.82 623.98,343.4 613.11,325.97 613.11,320.46 620.43,332.21 621.32,330.79 613.11,317.63 613.11,312.12 618.42,320.65 619.31,319.23 612.42,308.18 605.65,319.03 605.53,319.23 606.41,320.65 611.73,312.12 611.73,317.63 603.64,330.6 603.52,330.79 604.4,332.21 611.73,320.46 611.73,325.97 600.98,343.2 600.85,343.4 601.74,344.82 611.73,328.81 611.73,334.3 597.46,357.19 597.33,357.39 598.22,358.81 611.73,337.14 611.73,342.63 602.21,357.9 603.1,359.32 611.73,345.48 611.73,350.97 603.64,363.94 603.52,364.14 604.4,365.56 611.73,353.81 611.73,359.31 600.98,376.55 600.85,376.75 601.74,378.17 611.73,362.15 611.73,367.65 597.46,390.54 597.33,390.74 598.22,392.16 611.73,370.49 611.73,375.99 602.34,391.05 602.21,391.25 603.1,392.67 611.73,378.83 611.73,398.41 613.11,398.41 613.11,378.83 621.74,392.67 622.62,391.25 613.11,375.99 613.11,370.49 626.51,391.99 626.62,392.16 627.5,390.74 613.11,367.65 613.11,362.15" fill="#231f20"/></g><g transform="matrix(.998783-.049317 0.049317 0.998783 52.761017 183.773602)"><path d="M639.64,206.46c0,0-10.7-7.16-17.78,1.17c5-2.43,10.54-2.51,17.78,3.23c7.23-5.74,12.74-5.66,17.78-3.23-7.09-8.33-17.78-1.17-17.78-1.17Z" fill="#231f20"/><path d="M670.46,184.07c0,0-6.69-4.47-11.11.74c3.15-1.52,6.59-1.57,11.11,2c4.52-3.58,8-3.53,11.11-2-4.42-5.21-11.11-.74-11.11-.74Z" fill="#231f20"/><path d="M705.44,158.91c0,0-6.69-4.48-11.11.73c3.14-1.52,6.59-1.57,11.11,2c4.52-3.59,8-3.54,11.11-2-4.43-5.21-11.11-.73-11.11-.73Z" fill="#231f20"/><path d="M683.22,223.53c0,0-6.69-4.48-11.11.73c3.14-1.52,6.59-1.57,11.11,2c4.52-3.59,8-3.54,11.11-2-4.43-5.21-11.11-.73-11.11-.73Z" fill="#231f20"/><path d="M714.22,197.28c0,0-10.45-7-17.36,1.15c4.91-2.38,10.29-2.45,17.36,3.15c7.06-5.6,12.44-5.53,17.36-3.15-6.91-8.14-17.36-1.15-17.36-1.15Z" fill="#231f20"/></g><g><g transform="translate(-44.77262 88.824824)"><path d="M224.36,276.84h-85c-.714061.060951-1.262633.658343-1.262633,1.375s.548572,1.314049,1.262633,1.375h85c.714061-.060951,1.262633-.658343,1.262633-1.375s-.548572-1.314049-1.262633-1.375Z" fill="#231f20"/><path d="M289.36,268.84h-.47c1.553053-4.776155-.003128-10.015272-3.911652-13.16917s-9.358166-3.567973-13.698348-1.04083c-.796814-8.317125-6.536162-15.330258-14.531358-17.756432s-16.664097.21472-21.948642,6.686432c-3.341408-15.850792-18.121521-26.612653-34.232612-24.92583s-28.341593,15.276681-28.327388,31.47583c-.008366,5.784495,1.58742,11.458016,4.61,16.39h-5.85c-.714061.060951-1.262633.658343-1.262633,1.375s.548572,1.314049,1.262633,1.375h26.7c.714061-.060951,1.262633-.658343,1.262633-1.375s-.548572-1.314049-1.262633-1.375h-18.18c-3.279571-4.834962-5.022335-10.547745-5-16.39.185282-15.39604,12.229066-28.035492,27.598247-28.963214s28.845876,10.171248,30.881753,25.433214l.38,3.21l1.69-2.76c4.298567-6.991051,12.714678-10.280283,20.61456-8.056699s13.36463,9.41987,13.38544,17.626699l-.06,2.62L271,257.6c2.92961-2.495349,7.042421-3.060414,10.536454-1.447618s5.732072,5.109322,5.733546,8.957618c-.002372,1.280547-.257233,2.548058-.75,3.73h-57.82c-.714061.060951-1.262633.658343-1.262633,1.375s.548572,1.314049,1.262633,1.375h60.66c.714061-.060951,1.262633-.658343,1.262633-1.375s-.548572-1.314049-1.262633-1.375Z" fill="#231f20"/></g><g><path d="M747.35,269.06h-47.08c-.484419.049898-.85266.458017-.85266.945s.368241.895102.85266.945h47.08c.484419-.049898.85266-.458017.85266-.945s-.368241-.895102-.85266-.945Z" fill="#231f20"/><path d="M697.87,264.63h-31.87c-.869338-2.256035-.095284-4.814303,1.878946-6.20996s4.644177-1.272086,6.481054.29996l1.37,1.17-.05-1.85c0-5.522847,4.477153-10,10-10c3.479059-.010919,6.709042,1.803337,8.51,4.78l1.21,2l.28-2.3c1.036194-8.43722,8.456777-14.612755,16.941867-14.09931s15.106873,7.538707,15.118133,16.03931c.006048,3.170777-.937853,6.270673-2.71,8.9h-10.03c-.519148,0-.94.420852-.94.94s.420852.94.94.94h14.77c.519148,0,.94-.420852.94-.94s-.420852-.94-.94-.94h-2.9c3.191362-5.469621,3.21368-12.228387.058508-17.718964s-9.005931-8.874367-15.338508-8.871036c-8.219626.012424-15.354219,5.66961-17.24,13.67-2.184958-2.545924-5.375046-4.007591-8.73-4-5.856741.033672-10.782978,4.399721-11.52,10.21-2.443525-1.308387-5.433558-1.022691-7.585099.724754s-3.044361,4.615334-2.264901,7.275246v0c-.484419.049898-.85266.458017-.85266.945s.368241.895102.85266.945h33.6c.484419-.049898.85266-.458017.85266-.945s-.368241-.895102-.85266-.945Z" fill="#231f20"/></g><g transform="translate(0 0.000001)"><path d="M328,502.61c9.514451-.030837,18.251529,5.248034,22.649881,13.684872s3.723344,18.622484-1.749881,26.405128h-11.2c-.966498,0-1.75.783502-1.75,1.75s.783502,1.75,1.75,1.75h22.3c.966498,0,1.75-.783502,1.75-1.75s-.783502-1.75-1.75-1.75h-7.56c2.659749-4.401558,4.063825-9.447242,4.06-14.59-.022032-15.73098-12.76902-28.477968-28.5-28.5-3.523761-.005842-7.017404.648792-10.3,1.93-7.066676-22.573306-28.854753-37.217166-52.425153-35.23517s-42.607055,20.058742-45.804847,43.49517c-3.753073-1.769493-7.850704-2.688045-12-2.69-13.548006-.01209-25.140681,9.723731-27.47,23.07-.5,0-1-.07-1.44-.07-8.434627.022992-15.794334,5.727586-17.92,13.89h-28.94c-.966498,0-1.75.783502-1.75,1.75s.783502,1.75,1.75,1.75h63c.966498,0,1.75-.783502,1.75-1.75s-.783502-1.75-1.75-1.75h-30.94c2.036768-6.456076,8.000484-10.865269,14.77-10.92.827964.00567,1.654068.07925,2.47.22l1.54.25.18-1.55c1.043056-8.305618,6.173722-15.538031,13.668067-19.267111s16.357701-3.459894,23.611933.717111l2,1.17.22-2.34c2.08211-22.858062,20.214244-40.95573,43.076226-42.994347s43.910138,12.565321,50.003774,34.694347l.46,1.7l1.61-.74c3.333086-1.536419,6.959844-2.331372,10.63-2.33Z" fill="#231f20"/><path d="M290.7,560h-116c-.966498,0-1.75.783502-1.75,1.75s.783502,1.75,1.75,1.75h116c.966498,0,1.75-.783502,1.75-1.75s-.783502-1.75-1.75-1.75Z" fill="#231f20"/><path d="M379.36,560.37h-61.36c-.966498,0-1.75.783502-1.75,1.75s.783502,1.75,1.75,1.75h61.33c.966498,0,1.75-.783502,1.75-1.75s-.783502-1.75-1.75-1.75Z" fill="#231f20"/></g><g transform="translate(.000001 0.000001)"><path d="M819.66,611.48h-28.94c-2.111353-8.16356-9.457924-13.879841-17.89-13.92-.47,0-1,0-1.45.06-1.539639-8.577376-6.985127-15.948894-14.731168-19.941477s-16.909421-4.150989-24.788832-.428523c-3.200956-23.43527-22.239101-41.509081-45.808984-43.488634s-45.355978,12.66557-52.421016,35.238634c-11.338394-4.429294-24.238484-1.154275-32.090988,8.147123s-8.917367,22.568053-2.649012,33.002877h-7.56c-.966498,0-1.75.783502-1.75,1.75s.783502,1.75,1.75,1.75h22.33c.966498,0,1.75-.783502,1.75-1.75s-.783502-1.75-1.75-1.75h-11.2c-6.627941-9.427782-6.099601-22.131346,1.288297-30.97621s19.794337-11.626945,30.251703-6.78379l1.6.73.47-1.7c6.095085-22.129599,27.145434-36.73255,50.008132-34.691414s40.993306,20.142088,43.071868,43.001414l.21,2.33l2-1.17c7.259394-4.173738,16.126293-4.435876,23.619575-.698283s12.617716,10.978506,13.650425,19.288283l.19,1.54l1.54-.24c.815932-.14075,1.642036-.21433,2.47-.22c6.770566.051586,12.735932,4.461998,14.77,10.92h-30.94c-.966498,0-1.75.783502-1.75,1.75s.783502,1.75,1.75,1.75h63c.966498,0,1.75-.783502,1.75-1.75s-.783502-1.75-1.75-1.75Z" fill="#231f20"/><path d="M776.66,627.48h-116c-.966498,0-1.75.783502-1.75,1.75s.783502,1.75,1.75,1.75h116c.966498,0,1.75-.783502,1.75-1.75s-.783502-1.75-1.75-1.75Z" fill="#231f20"/><path d="M633.33,627.81h-61.33c-.966498,0-1.75.783502-1.75,1.75s.783502,1.75,1.75,1.75h61.34c.966498,0,1.75-.783502,1.75-1.75s-.783502-1.75-1.75-1.75Z" fill="#231f20"/></g></g></g><g id="eMBGRTrmKt9293_to" transform="translate(423.594636,439.080756)"><g id="eMBGRTrmKt9293_ts" transform="scale(1,0.72802)"><g id="eMBGRTrmKt9293" transform="translate(-421.622094,-427.350181)" opacity="0"><path d="M415.53,728.59v-37.48c0-10.31,16-10.31,16,0v115.28c.833616,6.610314,6.268007,11.682973,12.92,12.06c11.91,1.16,13.58-10.34,13.58-10.34l-4-383c0,0-2.33-21.66,25.33-32.33c0,0-93.66.34-95.66,44-1.51,32.85-2.49,206.29-2.89,293.46c0,0,.59,14.87,16.59,16.12s18.13-15.55,18.13-17.77Z" fill="#e0ded2"/><path d="M446.1,820c-.58,0-1.19,0-1.8-.09-13-1.27-14.25-13.29-14.26-13.41v-115.39c0-4.31-3.27-6.24-6.5-6.24s-6.5,1.93-6.5,6.24v37.48c-.242639,3.650069-1.280187,7.202987-3.04,10.41-2.849416,5.625988-8.696607,9.095321-15,8.9v0c-.58,0-1.18,0-1.78-.07-17.13-1.34-18-17.4-18-17.56.45-95.9,1.42-261.46,2.89-293.59.85-18.59,18.05-32.34,49.74-39.76c15.580813-3.450306,31.464948-5.349569,47.42-5.67h8.14l-7.6,2.93c-26.19,10.1-24.47,29.94-24.38,30.78v.14l4,383.11v.12c-.5,4.05-4.06,11.67-13.33,11.67ZM433,806.31c.1.87,1.38,9.65,11.56,10.64.52,0,1,.08,1.51.08c8.55,0,10.24-8,10.43-9l-4-382.82c-.11-1.47-1-19.41,19.43-30.63-21.95,1.19-85.18,7.64-86.76,42.3-1.47,32.07-2.45,197.59-2.89,293.4c0,.48.77,13.49,15.21,14.62.53,0,1.05.06,1.55.06c5.199635.186027,10.028265-2.683783,12.35-7.34c1.502761-2.779177,2.392729-5.848031,2.61-9v-37.51c0-6.06,4.78-9.24,9.5-9.24s9.5,3.18,9.5,9.24Z" fill="#231f20"/><circle r="15.5" transform="translate(399.03 768.61)" fill="#e0ded2"/><path d="M399,785.61c-9.388841,0-17-7.611159-17-17s7.611159-17,17-17s17,7.611159,17,17-7.611159,17-17,17Zm0-31c-7.731986,0-14,6.268014-14,14s6.268014,14,14,14s14-6.268014,14-14-6.268014-14-14-14Z" fill="#231f20"/><path d="M398.11,508.11v77.67c0,.690356.559644,1.25,1.25,1.25s1.25-.559644,1.25-1.25v-77.67c0-.690356-.559644-1.25-1.25-1.25s-1.25.559644-1.25,1.25Z" fill="#fdfbee"/><path d="M410.11,552.11v98.34c0,.690356.559644,1.25,1.25,1.25s1.25-.559644,1.25-1.25v-98.34c0-.690356-.559644-1.25-1.25-1.25s-1.25.559644-1.25,1.25Z" fill="#fdfbee"/><path d="M421.78,447.45v89.66c0,.690356.559644,1.25,1.25,1.25s1.25-.559644,1.25-1.25v-89.66c0-.690356-.559644-1.25-1.25-1.25s-1.25.559644-1.25,1.25Z" fill="#fdfbee"/><path d="M439.11,577.45v38.66c0,.690356.559644,1.25,1.25,1.25s1.25-.559644,1.25-1.25v-38.66c0-.690356-.559644-1.25-1.25-1.25s-1.25.559644-1.25,1.25Z" fill="#fdfbee"/><path d="M438.78,630.78v37.33c0,.690356.559644,1.25,1.25,1.25s1.25-.559644,1.25-1.25v-37.33c0-.690356-.559644-1.25-1.25-1.25s-1.25.559644-1.25,1.25Z" fill="#fdfbee"/></g></g></g></svg>