<svg xmlns="http://www.w3.org/2000/svg" xmlns:xlink="http://www.w3.org/1999/xlink" viewBox="0 0 703.08 403.19"><defs><style>.cls-1,.cls-20,.cls-31{fill:#fff;}.cls-2{isolation:isolate;}.cls-3{fill:#ff8793;}.cls-4{fill:#ffc943;}.cls-24,.cls-5{fill:#9e92de;}.cls-15,.cls-19,.cls-23,.cls-27,.cls-29,.cls-6{fill:none;}.cls-6{stroke:#a8d8d7;stroke-miterlimit:10;}.cls-7,.cls-8{fill:#a8d8d7;}.cls-8{opacity:0.2;}.cls-17,.cls-18,.cls-24,.cls-25,.cls-26,.cls-8{mix-blend-mode:multiply;}.cls-9{mask:url(#mask);}.cls-10,.cls-35{fill:#001d51;}.cls-11{fill:#b6f1ff;}.cls-12{fill:#45c0dd;}.cls-13,.cls-18,.cls-30,.cls-32{fill:#0037ae;}.cls-14,.cls-17,.cls-18,.cls-24{opacity:0.3;}.cls-15{stroke:#0037ae;}.cls-15,.cls-19,.cls-23,.cls-27,.cls-29{stroke-linecap:round;stroke-linejoin:round;}.cls-15,.cls-29{stroke-width:1.06px;}.cls-16,.cls-17{fill:#5559bd;}.cls-19,.cls-23,.cls-29{stroke:#fff;}.cls-19{stroke-width:0.53px;}.cls-20{font-size:14.68px;}.cls-20,.cls-30{font-family:Raleway-Black, Raleway Black;font-weight:800;}.cls-21{letter-spacing:-0.04em;}.cls-22,.cls-26{fill:#ff9d9c;}.cls-23,.cls-27{stroke-width:0.26px;}.cls-25,.cls-26{opacity:0.5;}.cls-27{stroke:#ff7171;}.cls-28{fill:#ff7171;}.cls-30{font-size:35.1px;}.cls-31,.cls-35{font-size:11.63px;}.cls-31{font-family:Raleway-Medium, Raleway Medium;font-weight:500;}.cls-32{font-size:9.68px;font-family:Raleway-Bold, Raleway Bold;font-weight:700;}.cls-33{letter-spacing:-0.04em;}.cls-34{letter-spacing:-0.04em;}.cls-35{font-family:Raleway-Light, Raleway Light;font-weight:300;}.cls-36{letter-spacing:-0.01em;}.cls-37{letter-spacing:0em;}.cls-38{letter-spacing:-0.01em;}.cls-39{letter-spacing:0em;}.cls-40{letter-spacing:-0.01em;}.cls-41{letter-spacing:0.01em;}.cls-42{letter-spacing:0em;}.cls-43{letter-spacing:-0.01em;}.cls-44{letter-spacing:-0.01em;}.cls-45{letter-spacing:0em;}.cls-46{letter-spacing:-0.01em;}</style><mask id="mask" x="387.35" y="44.57" width="183.15" height="251.94" maskUnits="userSpaceOnUse"><circle class="cls-1" cx="478.93" cy="182.4" r="91.57" transform="translate(-21.98 74.09) rotate(-8.65)"/><rect class="cls-1" x="392.86" y="44.57" width="177.64" height="155.93"/></mask></defs><title>Asset 1</title><g class="cls-2"><g id="Layer_2" data-name="Layer 2"><g id="Objects"><path class="cls-1" d="M15.46,0H687.63a15.46,15.46,0,0,1,15.46,15.46V387.74a15.46,15.46,0,0,1-15.46,15.46H15.45A15.45,15.45,0,0,1,0,387.74V15.46A15.46,15.46,0,0,1,15.46,0Z"/><path class="cls-3" d="M300.9,273.6,333,298.17a71.59,71.59,0,0,1-7.85-3.68l-18.62-14.27A72.41,72.41,0,0,1,300.9,273.6Z"/><path class="cls-3" d="M291.53,256.86l60,46c-1.26-.14-2.51-.32-3.76-.54l-54.75-42C292.49,259.2,292,258,291.53,256.86Z"/><path class="cls-3" d="M287.78,244.41l76.75,58.84c-1,.05-1.94.09-2.91.11l-73.18-56.1C288.2,246.32,288,245.36,287.78,244.41Z"/><path class="cls-3" d="M286.37,233.76l88.82,68.08c-.82.17-1.64.32-2.46.46l-86.16-66.05C286.48,235.43,286.42,234.59,286.37,233.76Z"/><path class="cls-3" d="M286.42,224.23l98,75.09-2.14.71L286.3,226.48Q286.33,225.34,286.42,224.23Z"/><path class="cls-3" d="M287.54,215.52,392.5,296l-1.9.89L287.17,217.59C287.28,216.9,287.4,216.21,287.54,215.52Z"/><path class="cls-3" d="M289.53,207.48,399.75,292l-1.7,1.05L289,209.4C289.15,208.76,289.33,208.11,289.53,207.48Z"/><path class="cls-3" d="M292.29,200l113.94,87.33c-.5.4-1,.8-1.52,1.18L291.55,201.8C291.79,201.21,292,200.61,292.29,200Z"/><path class="cls-3" d="M295.74,193.1,412,282.23c-.44.45-.89.89-1.35,1.31L294.83,194.75C295.12,194.2,295.42,193.64,295.74,193.1Z"/><path class="cls-3" d="M299.82,186.66l117.35,90c-.38.49-.79,1-1.2,1.43L298.75,188.19C299.1,187.68,299.45,187.16,299.82,186.66Z"/><path class="cls-3" d="M304.51,180.68l117.22,89.86c-.35.51-.7,1-1.07,1.53l-117.35-90C303.69,181.62,304.1,181.15,304.51,180.68Z"/><path class="cls-3" d="M309.82,175.19,425.66,264c-.3.55-.59,1.11-.91,1.65L308.47,176.5C308.91,176.05,309.37,175.61,309.82,175.19Z"/><path class="cls-3" d="M315.79,170.19l113.15,86.73c-.24.59-.49,1.19-.75,1.78L314.26,171.37C314.76,171,315.27,170.57,315.79,170.19Z"/><path class="cls-3" d="M322.44,165.73l109.08,83.61c-.19.63-.37,1.28-.57,1.91L320.73,166.77C321.3,166.41,321.87,166.07,322.44,165.73Z"/><path class="cls-3" d="M329.89,161.87l103.43,79.28c-.12.68-.24,1.38-.37,2.07L328,162.76C328.61,162.45,329.25,162.15,329.89,161.87Z"/><path class="cls-3" d="M338.25,158.71l95.94,73.54c0,.75-.06,1.51-.13,2.25l-97.95-75.09C336.81,159.16,337.52,158.92,338.25,158.71Z"/><path class="cls-3" d="M347.77,156.43l86.14,66c.09.83.15,1.66.2,2.5L345.3,156.89C346.12,156.72,347,156.56,347.77,156.43Z"/><path class="cls-3" d="M358.87,155.38l73.18,56.1c.24.94.45,1.89.65,2.84L356,155.49C356.92,155.43,357.89,155.4,358.87,155.38Z"/><path class="cls-3" d="M372.7,156.41l54.75,42c.54,1.15,1,2.31,1.5,3.49l-60-46C370.2,156,371.45,156.19,372.7,156.41Z"/><path class="cls-3" d="M395.43,164.27,414,178.47a71.66,71.66,0,0,1,5.61,6.64l-32-24.53A69.19,69.19,0,0,1,395.43,164.27Z"/><path class="cls-4" d="M44.13,356.92l14.31,11a32.85,32.85,0,0,1-3.51-1.65l-8.31-6.37A31.71,31.71,0,0,1,44.13,356.92Z"/><path class="cls-4" d="M40,349.45,66.74,370c-.57-.06-1.12-.15-1.68-.24L40.62,351C40.38,350.5,40.16,350,40,349.45Z"/><path class="cls-4" d="M38.27,343.9l34.27,26.26c-.43,0-.87,0-1.3,0l-32.67-25C38.46,344.75,38.36,344.32,38.27,343.9Z"/><path class="cls-4" d="M37.64,339.14,77.3,369.53l-1.1.21L37.73,340.25C37.69,339.88,37.67,339.51,37.64,339.14Z"/><path class="cls-4" d="M37.67,334.88,81.4,368.41c-.31.11-.63.22-1,.31L37.61,335.89C37.62,335.55,37.64,335.21,37.67,334.88Z"/><path class="cls-4" d="M38.16,331,85,366.92l-.85.4L38,331.92C38.05,331.61,38.1,331.3,38.16,331Z"/><path class="cls-4" d="M39.05,327.41l49.21,37.71-.76.47L38.81,328.26C38.88,328,39,327.69,39.05,327.41Z"/><path class="cls-4" d="M40.29,324.08l50.86,39c-.22.18-.45.35-.68.52L40,324.87C40.06,324.61,40.17,324.34,40.29,324.08Z"/><path class="cls-4" d="M41.83,321l51.91,39.79-.61.58L41.42,321.72C41.55,321.48,41.68,321.23,41.83,321Z"/><path class="cls-4" d="M43.65,318.12,96,358.27c-.17.22-.36.44-.54.64L43.17,318.8C43.33,318.57,43.48,318.34,43.65,318.12Z"/><path class="cls-4" d="M45.74,315.44l52.33,40.12c-.15.23-.31.46-.47.68L45.21,316.08C45.38,315.86,45.56,315.65,45.74,315.44Z"/><path class="cls-4" d="M48.11,313l51.72,39.64c-.13.25-.27.5-.41.74L47.51,313.58C47.7,313.37,47.91,313.18,48.11,313Z"/><path class="cls-4" d="M50.78,310.76l50.51,38.72c-.11.26-.21.53-.33.79l-50.86-39C50.32,311.1,50.55,310.93,50.78,310.76Z"/><path class="cls-4" d="M53.75,308.77l48.69,37.33c-.08.28-.16.57-.25.85L53,309.23Z"/><path class="cls-4" d="M57.07,307l46.18,35.4c-.06.3-.11.61-.17.92L56.22,307.44Z"/><path class="cls-4" d="M60.81,305.63l42.83,32.83c0,.34,0,.68-.06,1L59.85,306Z"/><path class="cls-4" d="M65.05,304.62l38.46,29.48q.06.56.09,1.11L64,304.82Z"/><path class="cls-4" d="M70,304.15l32.67,25c.11.42.2.85.29,1.27L68.71,304.2C69.14,304.17,69.58,304.16,70,304.15Z"/><path class="cls-4" d="M76.19,304.61l24.44,18.73c.24.52.46,1,.67,1.56L74.51,304.37Q75.35,304.46,76.19,304.61Z"/><path class="cls-4" d="M86.33,308.12l8.28,6.34a31.82,31.82,0,0,1,2.5,3L82.82,306.47A32,32,0,0,1,86.33,308.12Z"/><path class="cls-5" d="M607,44.24c32.54,4,38-10.15,65.14-11.28,19-.79,27.84,7.18,31,11.09V15.46A15.46,15.46,0,0,0,687.63,0H541.25C576.22,10.41,573.79,40.1,607,44.24Z"/><path class="cls-5" d="M135.89,316.62C94.1,298.71,66,339.29,33.31,339.49,15.22,339.6,3.44,328.37,0,324.6v63.13a15.46,15.46,0,0,0,15.46,15.46H213.92C135,390.79,181.3,336.1,135.89,316.62Z"/><path class="cls-5" d="M703.08,387.73V192.22C581,242,460.41,174.81,442,72.48,423.35-30.78,292.57,7.79,304.56,75.71c9.7,55,73.29,22.76,69.18,150.18-2.7,83.89,75.46,59.33,130.38,98,59,41.5,20.53,75.47,15.76,79.34H687.63A15.46,15.46,0,0,0,703.08,387.73Z"/><path class="cls-6" d="M335.37,128.19A7.39,7.39,0,1,1,328,120.8,7.38,7.38,0,0,1,335.37,128.19Z"/><path class="cls-7" d="M478.88,65A128.09,128.09,0,0,0,375.7,269l-62.85,62.85a20.86,20.86,0,0,0,0,29.49h0a20.84,20.84,0,0,0,29.49,0l63.22-63.22A128.1,128.1,0,1,0,478.88,65Z"/><path class="cls-8" d="M518.45,306.29C469,327.53,411.85,290.08,404.3,285.88c-26,23-69,74.11-81.26,70.19-5-1.6-13.5-6.47-15.52-15.12a20.85,20.85,0,0,0,34.82,20.35l63.22-63.22A128.1,128.1,0,0,0,607,193C603.38,216.18,597.09,272.48,518.45,306.29Z"/><path class="cls-1" d="M372.36,155.59a2.08,2.08,0,0,1-.73-.13,2.11,2.11,0,0,1-1.25-2.72,115.53,115.53,0,0,1,69.34-68.61,2.11,2.11,0,0,1,1.43,4,111.31,111.31,0,0,0-66.81,66.1A2.11,2.11,0,0,1,372.36,155.59Z"/><path class="cls-1" d="M569.65,193.39a91.11,91.11,0,1,1-91.11-91.11A91.1,91.1,0,0,1,569.65,193.39Z"/><g class="cls-9"><rect class="cls-10" x="418.55" y="60" width="128.76" height="236.51" rx="10.33"/><rect class="cls-11" x="367.55" y="116.77" width="230.76" height="122.97" rx="7.62" transform="translate(661.19 -304.67) rotate(90)"/><path class="cls-12" d="M542.39,72.12V284.4a7.23,7.23,0,0,1-7.23,7.23H430.7a7.24,7.24,0,0,1-7.24-7.23V72.12a7.25,7.25,0,0,1,7.24-7.23h22.92a2.87,2.87,0,0,1,2.88,2.88A6.27,6.27,0,0,0,462.75,74h40.37a6.23,6.23,0,0,0,6.23-6.23,2.8,2.8,0,0,1,.85-2,2.87,2.87,0,0,1,2-.85h22.93A7.25,7.25,0,0,1,542.39,72.12Z"/><path class="cls-13" d="M491,69.82H470c-.59,0-1.08-.32-1.08-.72s.49-.71,1.08-.71h21c.59,0,1.07.32,1.07.71S491.58,69.82,491,69.82Z"/><path class="cls-13" d="M497.55,69.1A1.54,1.54,0,1,1,496,67.61,1.52,1.52,0,0,1,497.55,69.1Z"/><g class="cls-14"><polygon class="cls-1" points="542.39 99.47 542.39 137.78 423.46 222.06 423.46 183.75 542.39 99.47"/><polygon class="cls-1" points="542.39 145.07 542.39 163.69 423.46 247.99 423.46 229.36 542.39 145.07"/></g></g><line class="cls-15" x1="536.51" y1="367.55" x2="615.15" y2="367.55"/><path class="cls-16" d="M558.72,312.59c7.87,8.18,9,25.82,15.92,23.51a17.23,17.23,0,0,0,1.28-14.93c-3.09-8.58-.87-20.77-6.83-27.77s-9.63-10.79-15.14-9.1a1,1,0,0,0-.42.26C550.89,287.07,551.25,304.8,558.72,312.59Z"/><path class="cls-17" d="M558.72,312.59c7.87,8.18,9,25.82,15.92,23.51-3-24.9-18.22-47.43-21.11-51.54C550.89,287.07,551.25,304.8,558.72,312.59Z"/><path class="cls-1" d="M558.16,291.74a139.58,139.58,0,0,1,8,15.37,149.7,149.7,0,0,1,6.12,16.2,120.15,120.15,0,0,1,4,16.86l.62,4.3c.18,1.43.26,2.88.38,4.32l.18,2.17c0,.72,0,1.45,0,2.17l0,4.35a.48.48,0,0,1-.47.48.47.47,0,0,1-.48-.47h0v-4.34c0-.72,0-1.44,0-2.16l-.15-2.14c-.11-1.44-.16-2.87-.32-4.3l-.55-4.27a119.65,119.65,0,0,0-3.77-16.83,153.57,153.57,0,0,0-5.87-16.25A141.15,141.15,0,0,0,558.16,291.74Z"/><path class="cls-16" d="M572.41,301.41c5.8,11.38,1.23,30.74,9.45,30.52a19.41,19.41,0,0,0,6.27-15.65c-.54-10.25,5.84-22.65,1.72-32.13s-6.85-14.76-13.32-14.74a1.32,1.32,0,0,0-.55.14C572.32,271.39,566.91,290.59,572.41,301.41Z"/><path class="cls-17" d="M572.41,301.41c5.8,11.38,1.23,30.74,9.45,30.52,4.87-27.79-4.1-57-5.88-62.38C572.32,271.39,566.91,290.59,572.41,301.41Z"/><path class="cls-1" d="M578.62,278.79a157.21,157.21,0,0,1,3.54,19.14,170.72,170.72,0,0,1,1.28,19.44,133.37,133.37,0,0,1-1.19,19.46l-.74,4.83c-.28,1.6-.67,3.19-1,4.78l-.52,2.39c-.2.79-.45,1.57-.67,2.35l-1.37,4.7a.53.53,0,0,1-.66.37.54.54,0,0,1-.37-.67h0v0l1.41-4.63c.24-.77.49-1.54.7-2.32l.55-2.36c.35-1.57.76-3.14,1.06-4.73l.8-4.78a136.09,136.09,0,0,0,1.45-19.35,169.89,169.89,0,0,0-1-19.4A155.53,155.53,0,0,0,578.62,278.79Z"/><path class="cls-16" d="M589.37,317c-.31,8.2-8.93,17.62-4.26,20.08a12.46,12.46,0,0,0,8.42-6.83c2.92-5.91,10.37-10.87,11-17.48s.78-10.43-2.86-12.44a.65.65,0,0,0-.35-.09C598.72,300.16,589.67,309.24,589.37,317Z"/><path class="cls-17" d="M589.37,317c-.31,8.2-8.93,17.62-4.26,20.08,11.44-14.07,15.55-33.28,16.24-36.84C598.72,300.16,589.67,309.24,589.37,317Z"/><path class="cls-1" d="M599.94,306.29a101.65,101.65,0,0,1-4.17,11.78,108.77,108.77,0,0,1-5.51,11.21,86.55,86.55,0,0,1-6.87,10.4,71.53,71.53,0,0,1-8.43,9.14h0a.35.35,0,0,0,0,.49.34.34,0,0,0,.48,0h0A72,72,0,0,0,583.8,340a85.09,85.09,0,0,0,6.76-10.55,109.28,109.28,0,0,0,5.37-11.31A101.16,101.16,0,0,0,599.94,306.29Z"/><path class="cls-16" d="M572.33,320.14c3.5,6.2,1.42,17.09,6,16.77a10.79,10.79,0,0,0,3.12-8.87c-.54-5.69,2.72-12.75.19-17.94s-4.16-8.06-7.77-7.89a.61.61,0,0,0-.3.09C571.56,303.41,569,314.24,572.33,320.14Z"/><path class="cls-17" d="M572.33,320.14c3.5,6.2,1.42,17.09,6,16.77,2.06-15.59-3.64-31.66-4.76-34.61C571.56,303.41,569,314.24,572.33,320.14Z"/><path class="cls-1" d="M575.25,307.39A86.71,86.71,0,0,1,577.68,318a95.42,95.42,0,0,1,1.18,10.79,74.56,74.56,0,0,1-.2,10.88,63,63,0,0,1-1.94,10.71.3.3,0,0,1-.36.22.31.31,0,0,1-.22-.37h0a62.45,62.45,0,0,0,2.06-10.6,73.62,73.62,0,0,0,.35-10.81,95.14,95.14,0,0,0-1-10.79A85.48,85.48,0,0,0,575.25,307.39Z"/><path class="cls-16" d="M555.91,330.33c6.37,3.16,10.77,13.35,14.37,10.52a10.78,10.78,0,0,0-2.4-9.09c-3.64-4.41-4.91-12.08-9.91-15s-8-4.33-10.87-2.17a.62.62,0,0,0-.19.25C545.88,316.92,549.84,327.31,555.91,330.33Z"/><path class="cls-17" d="M555.91,330.33c6.37,3.16,10.77,13.35,14.37,10.52-7.06-14.06-20.79-24.16-23.37-26C545.88,316.92,549.84,327.31,555.91,330.33Z"/><path class="cls-1" d="M551.16,318.14a88.15,88.15,0,0,1,8,7.39,95.73,95.73,0,0,1,7,8.27,76.93,76.93,0,0,1,5.94,9.11,62.85,62.85,0,0,1,4.41,10,.29.29,0,0,1-.18.38.3.3,0,0,1-.38-.18h0v0a61.93,61.93,0,0,0-4.24-9.92,74.52,74.52,0,0,0-5.78-9.15,95.05,95.05,0,0,0-6.91-8.35A86.7,86.7,0,0,0,551.16,318.14Z"/><polygon class="cls-13" points="590.93 367.09 562.54 367.09 558.55 338.63 594.93 338.63 590.93 367.09"/><path class="cls-18" d="M559,338.63h-1.32l4,28.46H590l.63-4.49-2.19.56C571.4,367.9,561.88,352.85,559,338.63Z"/><line class="cls-19" x1="562.78" y1="342.85" x2="588.87" y2="342.85"/><path class="cls-13" d="M616.05,118.87A43.67,43.67,0,1,1,572.38,75.2,43.67,43.67,0,0,1,616.05,118.87Z"/><text class="cls-20" transform="translate(550.28 115.8)">FOL<tspan class="cls-21" x="24.2" y="0">L</tspan><tspan x="30.56" y="0">OW</tspan></text><text class="cls-20" transform="translate(585.04 130.67)">ME</text><path class="cls-3" d="M568.05,135.31l-2.32-1.61c-.12-.09-1.21-.85-2.35-1.85-1.63-1.44-3.5-3.45-3.5-6.19a4.44,4.44,0,0,1,4.28-4.59,4.26,4.26,0,0,1,3.89,2.69,4.27,4.27,0,0,1,3.9-2.69,4.43,4.43,0,0,1,4.27,4.59c0,2.74-1.87,4.75-3.5,6.19a29.23,29.23,0,0,1-2.35,1.85Z"/><path class="cls-13" d="M470.22,371.46s-24.25,5.22-29.33,5.22a3,3,0,0,1-1.8-.57c-2.39-1.71-2.37-6.76,2.87-8.3,8.42-2.47,14.82-9.91,14.82-9.91l11.27.27a18.46,18.46,0,0,1,1.08,1.82C472.42,366.35,470.22,371.46,470.22,371.46Z"/><path class="cls-22" d="M456.88,351.74l-.1,6.16s1,4,5.88,3.53c4.34-.38,5.45-3.11,5.45-3.11v-7.67Z"/><path class="cls-23" d="M445,366.93a2.84,2.84,0,0,1,2,2.27"/><path class="cls-23" d="M447.59,365.75a2.84,2.84,0,0,1,2,2.27"/><path class="cls-23" d="M449.88,364.54a2.83,2.83,0,0,1,1.95,2.27"/><path class="cls-23" d="M452.43,363a2.84,2.84,0,0,1,2,2.27"/><path class="cls-23" d="M454.67,361.37a2.84,2.84,0,0,1,2,2.27"/><path class="cls-13" d="M456.59,356.07c1.48.1,5,.63,5,3.25,0,3.35,4.64-2.23,6.52-1s-1.33,4.36-1.62,4.49-6.86,1.28-7.93.34C455.43,360.42,456.11,356,456.59,356.07Z"/><path class="cls-24" d="M470.22,371.46s-24.25,5.22-29.33,5.22a3,3,0,0,1-1.8-.57s28.6-4.33,29.6-5.48,1.29-6.6.44-10.64C472.42,366.35,470.22,371.46,470.22,371.46Z"/><path class="cls-13" d="M496.79,371.46s24.26,5.22,29.34,5.22a3.06,3.06,0,0,0,1.8-.57c2.39-1.71,2.37-6.76-2.87-8.3-8.42-2.47-14.83-9.91-14.83-9.91l-11.27.27a18.32,18.32,0,0,0-1.07,1.82C494.6,366.35,496.79,371.46,496.79,371.46Z"/><path class="cls-22" d="M510.14,351.74l.09,6.16s-1,4-5.87,3.53c-4.35-.38-5.45-3.11-5.45-3.11v-7.67Z"/><path class="cls-23" d="M522,366.93a2.82,2.82,0,0,0-2,2.27"/><path class="cls-23" d="M519.43,365.75a2.84,2.84,0,0,0-2,2.27"/><path class="cls-23" d="M517.14,364.54a2.84,2.84,0,0,0-2,2.27"/><path class="cls-23" d="M514.58,363a2.84,2.84,0,0,0-2,2.27"/><path class="cls-23" d="M512.35,361.37a2.84,2.84,0,0,0-2,2.27"/><path class="cls-13" d="M510.42,356.07c-1.47.1-5,.63-5,3.25,0,3.35-4.65-2.23-6.52-1s1.33,4.36,1.62,4.49,6.85,1.28,7.92.34C511.58,360.42,510.91,356,510.42,356.07Z"/><path class="cls-24" d="M496.79,371.46s24.26,5.22,29.34,5.22a3.06,3.06,0,0,0,1.8-.57s-28.6-4.33-29.61-5.48S497,364,497.89,360C494.6,366.35,496.79,371.46,496.79,371.46Z"/><path class="cls-10" d="M444.57,165.63s-.35,5.51,16.45,7.3l.12-1.34-9.28-7.13Z"/><path class="cls-16" d="M512.77,352.49s-4.46,4.53-14.93,1.41l-1.32-.42-5.59-69.59-7.37-41.69-7.37,41.69-5.6,69.59-.74.24c-10.88,3.47-15.51-1.23-15.51-1.23l.67-70.18,3.23-69.53,25.32,1.31,25.32-1.31,3.22,69.53Z"/><path class="cls-22" d="M446.2,165.72s-5.3,26.6-3.08,30.94,6,5.6,8.49,4.54,9.53-29.61,9.53-29.61A14.84,14.84,0,0,0,446.2,165.72Z"/><path class="cls-22" d="M505,162.9s12.52,21.25,15.72,24.93c3.36,3.86,10.17,1,11.38-1.41,2.32-4.63-11.91-28.72-11.91-28.72A14.86,14.86,0,0,0,505,162.9Z"/><path class="cls-22" d="M473.09,136.06l3.76-1.35,1.38-9.19h9l1.29,8.89,4.45,1.65,2.13,14.35s-33.18,3.78-37.9,1.93S465.8,138.76,473.09,136.06Z"/><path class="cls-13" d="M508.79,178c-.07,4.51-.14,9.43-.14,11.41,0,2.57.68,12.23,1.18,19,.29,3.89.52,6.8.52,6.8-15.92,5.79-53.18.94-53.18.94.73-9,2.47-28.09,3.38-38.11,0-.17,0-.33.05-.49.07-.75.13-1.45.19-2.07l0-.5c.09-.93.16-1.7.21-2.26.07-.71.1-1.1.1-1.1l-.07-.06c-.32-.29-.64-.56-1-.82-6.49-5.06-15.53-5.08-15.53-5.08s4.32-18,6.18-19.44c3.13-2,14.89-7,19.2-8.83l1.6-.67s1.39,11.69,12,10.87S493,136.05,493,136.05l1.89.54c4.56,1.31,16,4.64,17.41,5.64,1.84,1.26,10.23,17.37,10.23,17.37-6.56,9.56-13.6,9.46-13.6,9.46s0,.62,0,1.65c0,.55,0,1.22,0,2s0,1.45-.05,2.26v.5c0,.66,0,1.36,0,2.07Z"/><path class="cls-1" d="M508.91,170.71c0,.55,0,1.22,0,2H461c.07-.71.1-1.1.1-1.1l-.07-.06c-.32-.29-.64-.56-1-.82Z"/><path class="cls-1" d="M460.83,175h48v.5h-48Z"/><path class="cls-1" d="M508.79,177.52V178H460.55c0-.17,0-.33.05-.49Z"/><path class="cls-18" d="M510.35,215.18c-15.92,5.79-53.18.94-53.18.94,1-12.44,4-44.53,4-44.53l-.07-.06.07-.18,2-10.5c-.1,1.12-4.22,46,8.78,50.84,11.34,4.23,28.68,5,37.9-3.31C510.12,212.27,510.35,215.18,510.35,215.18Z"/><path class="cls-22" d="M488.66,129.44a17.88,17.88,0,0,1-5.15,1.95,9.38,9.38,0,0,1-4.87-.79l-2.87-1.35-1.19,12.86.32.21a13.42,13.42,0,0,0,14.38.07l.61-.4Z"/><g class="cls-25"><path class="cls-22" d="M480.94,131.29a9.23,9.23,0,0,0,4.87-.79l2.83-1.35.17,1.77c-3.83,3-8.87,5-13.53,3.56l.49-5.14A18.12,18.12,0,0,0,480.94,131.29Z"/></g><path class="cls-22" d="M481.83,167.92l5.12,6.7-29.71,25.67a7.64,7.64,0,0,1-11.82-1.3h0a7.48,7.48,0,0,1,2-10.21Z"/><path class="cls-22" d="M550.35,162.06,533.69,187c-2.23,4.31-8.92,5.31-11.67,2.31a6.21,6.21,0,0,1-2.37-4.87,8.11,8.11,0,0,1,1.82-4.89l6.71-6.73.45-.45,14.57-14.59h0l1.65,1,1.8,1.1Z"/><path class="cls-22" d="M558.62,152.55c-.28.54-.59,1.08-.9,1.57a18.31,18.31,0,0,1-3.53,4.24c-1.59,1.44-3.84,3.7-3.84,3.7l-5.54-3.23L551,145.31s1.71-1.89,2.29-2c1.36-.27,2.89.63,2.58,1.92,0,0,2.27.07,2.07,2.16,0,0,1.66.11,1.89,1.08C560.05,149.2,559.45,150.91,558.62,152.55Z"/><path class="cls-22" d="M544.5,153.06a32.56,32.56,0,0,1,.73-4.93c.38-.86,10.61-14.34,11.55-14.51s2.21.25,2,1.42S549,149.35,549,149.35Z"/><path class="cls-26" d="M558.62,152.55h0c1-2,1.26-3.15,1.09-3.86a1.49,1.49,0,0,0-1.39-1.07c-.35,0-1.51,1.95-1.91,2.67a27.36,27.36,0,0,0,1.42-2.84c.1-1.72-1.19-1.78-1.7-1.73s-2.09,2.79-2.6,3.66c.48-.84,2-3.47,2.15-3.94a1.61,1.61,0,0,0-1.16-1.9c-.94-.39-2.11,1.14-2.37,1.5l1.19-1.73c1.36-.27,2.89.63,2.58,1.92,0,0,2.27.07,2.07,2.16,0,0,1.66.11,1.89,1.08C560.05,149.2,559.45,150.91,558.62,152.55Z"/><path class="cls-26" d="M545.06,148.65s2.73-3,5.11-3.89c0,0,5,.44,5.13.57a1.89,1.89,0,0,1-.59,2.22c-1,1-3.7.54-3.7.54l-1.6,1.48a7.1,7.1,0,0,1,1,5.23Z"/><path class="cls-22" d="M543.2,157.74s1.46-8.5,1.86-9.09a24.51,24.51,0,0,1,4.94-3.58,45,45,0,0,1,5.18.33c.36,0,.28,1.95-1.06,2.37a8.71,8.71,0,0,1-3.15.2l-1.71,1.57s1.6,3.44,1.13,5.26a6.15,6.15,0,0,1-1.07,2.47L546.48,160Z"/><path class="cls-22" d="M498.3,163.71c-.51.35-.88.64-.88.64l0-.06Z"/><path class="cls-22" d="M498.31,163.7c.16-.11.34-.24.53-.35Z"/><path class="cls-22" d="M505,154.32c-.25.92-8.53,5.9-8.8,6.06h0l.12,0a3,3,0,0,1,1.58,0,2.13,2.13,0,0,1,.78,2.3,1.87,1.87,0,0,1,1.72,1.08,1.53,1.53,0,0,1-.46,1.7,1.52,1.52,0,0,1,1.31,1.87c-.2.93-7.43,5.65-8.49,6.23a2.48,2.48,0,0,1-.65.21c-1.5.3-4.4.16-5.22.83L481.83,168s3.72-6.85,5.59-7.92a22.66,22.66,0,0,1,3.61-.74s11.1-7.48,12.35-7.22A1.9,1.9,0,0,1,505,154.32Z"/><path class="cls-26" d="M501.31,167.35c-.2.93-7.43,5.65-8.49,6.23a2.48,2.48,0,0,1-.65.21h0s8.57-5.73,8.9-6.29.12-1.26-.64-1.75-4.08,2.32-4.08,2.32l0-.07a32.46,32.46,0,0,0,3.9-3.17,1.32,1.32,0,0,0-.87-1.87c-.5-.16-1.48.36-2.3.89a6.1,6.1,0,0,0,1.43-1.16,1.84,1.84,0,0,0-.14-1.66,1.47,1.47,0,0,0-1.62-.55c-.66.08-4.91,2.87-4.91,2.87v-.13l4.45-2.84h0l.12,0a3,3,0,0,1,1.58,0,2.13,2.13,0,0,1,.78,2.3,1.87,1.87,0,0,1,1.72,1.08,1.53,1.53,0,0,1-.46,1.7A1.52,1.52,0,0,1,501.31,167.35Z"/><polygon class="cls-26" points="528.18 172.78 522.27 178.71 527.95 172.29 528.18 172.78"/><polygon class="cls-26" points="458.4 182.13 450.13 187.14 458.69 181.06 458.4 182.13"/><path class="cls-22" d="M496,110.24s3.5-.25,3.77,2.1c.48,4.17-2.43,5.61-4.69,6.61a41.4,41.4,0,0,1-1.84-5A33.65,33.65,0,0,1,496,110.24Z"/><path class="cls-22" d="M468.47,110.24s-3.49-.25-3.77,2.1c-.48,4.17,2.43,5.61,4.7,6.61a43.18,43.18,0,0,0,1.84-5A34.93,34.93,0,0,0,468.47,110.24Z"/><path class="cls-22" d="M495.77,107.5c-.52-7-11.92-7.57-11.92-7.57h-3.31s-11.39.52-11.92,7.57c-.4,5.45-.8,16.18,5.77,21.83a12,12,0,0,0,15.62,0C496.58,123.68,496.18,113,495.77,107.5Z"/><path class="cls-10" d="M498.56,91.8c-7.4,4.13-18.33-5.09-27.54-.44-4.39,2.22-1.57,6.93-1.57,6.93-5,2.22-2.22,10.28-1.29,12.6.09.88.2,1.77.27,2.66,0,.29.1,1.61,1.24,1.39.84-.16,1-7.65,1-7.65s3.26.56,4.57-3.88c0,0,5.87,4.7,19.1,2.53,0,0-.1,8.42,1.56,8.71,0,0,0-.08.07-.21s2.77-7.52,1.73-11.45c-.56-2.13-1.3-2.8-1.48-2.8C501.88,99.88,498.56,91.8,498.56,91.8Z"/><path class="cls-10" d="M472.16,111.58s1.47-3,4.44-2.68a3.8,3.8,0,0,1,3.52,2.68S476.73,108.12,472.16,111.58Z"/><path class="cls-10" d="M477.81,113.79a1.44,1.44,0,1,1-1.42-1.66A1.55,1.55,0,0,1,477.81,113.79Z"/><path class="cls-10" d="M493.24,111.58s-1.47-3-4.44-2.68a3.82,3.82,0,0,0-3.53,2.68S488.67,108.12,493.24,111.58Z"/><path class="cls-10" d="M487.59,113.79a1.44,1.44,0,1,0,1.42-1.66A1.55,1.55,0,0,0,487.59,113.79Z"/><path class="cls-10" d="M483.07,112.07s2,6.88,1.43,7.92-2.58,1.35-2.58,1.35,2.15-.65,2.15-1.52S483.07,112.07,483.07,112.07Z"/><path class="cls-1" d="M477.81,123.64h10.31s-.69,2.87-5.35,2.82S477.81,123.64,477.81,123.64Z"/><path class="cls-27" d="M497.3,113a.72.72,0,0,1,1,.58,3.43,3.43,0,0,1-1.58,3.07"/><path class="cls-27" d="M497.65,113.81s-.45.2-.28,1.16"/><path class="cls-27" d="M467.35,113a.72.72,0,0,0-1,.58,3.43,3.43,0,0,0,1.58,3.07"/><path class="cls-27" d="M467,113.81s.46.2.28,1.16"/><path class="cls-23" d="M458.67,226.7a16,16,0,0,0,9.77-7.82"/><line class="cls-23" x1="461.04" y1="225.83" x2="457.65" y2="351.67"/><path class="cls-23" d="M508.44,226.7a16,16,0,0,1-9.77-7.82"/><line class="cls-23" x1="506.08" y1="225.83" x2="509.46" y2="351.67"/><path class="cls-1" d="M494.9,136.59c-.07,4-1.42,12.23-11.34,12.78-11.59.64-13.35-9.59-13.61-12l1.6-.67s1.39,11.69,12,10.87S493,136.05,493,136.05Z"/><polygon class="cls-18" points="508.94 169.06 505.24 163.35 508.69 185.22 508.94 169.06"/><path class="cls-17" d="M492.39,282.13,483.81,237a7.32,7.32,0,0,0,3.76-1.59c-5.21,2.18-7.24,0-7.24,0a4.07,4.07,0,0,0,3.38,1.6l-9.17,42.55-4.69,74.14.74-.24,5.6-69.59,7.37-41.69,7.37,41.69,5.59,69.59,1.32.42Z"/><path class="cls-28" d="M154.91,34.41a.54.54,0,0,1-.34-.12l-6.44-5.21-6.44,5.21a.53.53,0,0,1-.67,0l-6.44-5.21-6.44,5.21a.51.51,0,0,1-.66,0L121,29.08l-6.44,5.21a.53.53,0,0,1-.67,0l-6.77-5.48a.53.53,0,1,1,.66-.82l6.45,5.21L120.7,28a.56.56,0,0,1,.67,0l6.44,5.21L134.25,28a.54.54,0,0,1,.66,0l6.45,5.21L147.8,28a.54.54,0,0,1,.66,0l6.45,5.21L161.35,28a.54.54,0,0,1,.66,0l6.45,5.21L174.91,28a.52.52,0,0,1,.74.08.52.52,0,0,1-.08.74l-6.78,5.48a.51.51,0,0,1-.66,0l-6.45-5.21-6.44,5.21A.54.54,0,0,1,154.91,34.41Z"/><path class="cls-28" d="M154.91,42.22a.54.54,0,0,1-.34-.12l-6.44-5.21-6.44,5.21a.53.53,0,0,1-.67,0l-6.44-5.21-6.44,5.21a.51.51,0,0,1-.66,0L121,36.89,114.6,42.1a.53.53,0,0,1-.67,0l-6.77-5.47a.53.53,0,0,1,.66-.83L114.27,41l6.43-5.21a.56.56,0,0,1,.67,0L127.81,41l6.44-5.21a.54.54,0,0,1,.66,0L141.36,41l6.44-5.21a.54.54,0,0,1,.66,0L154.91,41l6.44-5.21a.54.54,0,0,1,.66,0L168.46,41l6.45-5.21a.53.53,0,0,1,.66.83l-6.78,5.47a.51.51,0,0,1-.66,0l-6.45-5.21-6.44,5.21A.54.54,0,0,1,154.91,42.22Z"/><path class="cls-16" d="M193.22,351.41l-8.63,7a.71.71,0,0,1-.89,0l-8.63-7-8.63,7a.71.71,0,0,1-.89,0l-8.63-7-8.62,7a.71.71,0,0,1-.89,0l-9.08-7.34a.71.71,0,0,1,.89-1.11l8.63,7,8.63-7a.74.74,0,0,1,.89,0l8.62,7,8.63-7a.74.74,0,0,1,.89,0l8.63,7,8.63-7a.74.74,0,0,1,.89,0,.75.75,0,0,1,.11.93A3,3,0,0,1,193.22,351.41Z"/><path class="cls-16" d="M193.22,361.1l-8.63,7a.71.71,0,0,1-.89,0l-8.63-7-8.63,7a.71.71,0,0,1-.89,0l-8.63-7-8.62,7a.71.71,0,0,1-.89,0l-9.08-7.34a.71.71,0,0,1,.89-1.11l8.63,7,8.63-7a.74.74,0,0,1,.89,0l8.62,7,8.63-7a.74.74,0,0,1,.89,0l8.63,7,8.63-7a.74.74,0,0,1,.89,0,.75.75,0,0,1,.11.93A3,3,0,0,1,193.22,361.1Z"/><path class="cls-1" d="M23.1,384.7a2.05,2.05,0,1,1-2.05,2.05A2.05,2.05,0,0,1,23.1,384.7Z"/><path class="cls-1" d="M23.1,370a2.05,2.05,0,1,1-2.05,2.05A2.05,2.05,0,0,1,23.1,370Z"/><path class="cls-1" d="M23.1,355.3a2.05,2.05,0,1,1-2.05,2.05A2.05,2.05,0,0,1,23.1,355.3Z"/><path class="cls-1" d="M35.49,384.7a2.05,2.05,0,1,1-2.05,2.05A2,2,0,0,1,35.49,384.7Z"/><path class="cls-1" d="M35.49,370a2.05,2.05,0,1,1-2.05,2.05A2,2,0,0,1,35.49,370Z"/><path class="cls-1" d="M35.49,355.3a2.05,2.05,0,1,1-2.05,2.05A2,2,0,0,1,35.49,355.3Z"/><path class="cls-1" d="M47.89,384.7a2.05,2.05,0,1,1-2,2.05A2.05,2.05,0,0,1,47.89,384.7Z"/><path class="cls-1" d="M47.89,370a2.05,2.05,0,1,1-2,2.05A2.05,2.05,0,0,1,47.89,370Z"/><path class="cls-1" d="M47.89,355.3a2.05,2.05,0,1,1-2,2.05A2.05,2.05,0,0,1,47.89,355.3Z"/><path class="cls-1" d="M60.28,384.7a2.05,2.05,0,1,1-2.05,2.05A2.05,2.05,0,0,1,60.28,384.7Z"/><path class="cls-1" d="M60.28,370a2.05,2.05,0,1,1-2.05,2.05A2.05,2.05,0,0,1,60.28,370Z"/><path class="cls-1" d="M60.28,355.3a2.05,2.05,0,1,1-2.05,2.05A2.05,2.05,0,0,1,60.28,355.3Z"/><path class="cls-1" d="M72.67,384.7a2.05,2.05,0,1,1-2,2.05A2.05,2.05,0,0,1,72.67,384.7Z"/><path class="cls-1" d="M72.67,370a2.05,2.05,0,1,1-2,2.05A2.05,2.05,0,0,1,72.67,370Z"/><path class="cls-1" d="M72.67,355.3a2.05,2.05,0,1,1-2,2.05A2.05,2.05,0,0,1,72.67,355.3Z"/><path class="cls-1" d="M85.06,384.7a2.05,2.05,0,1,1-2,2.05A2,2,0,0,1,85.06,384.7Z"/><path class="cls-1" d="M85.06,370a2.05,2.05,0,1,1-2,2.05A2,2,0,0,1,85.06,370Z"/><path class="cls-1" d="M85.06,355.3a2.05,2.05,0,1,1-2,2.05A2,2,0,0,1,85.06,355.3Z"/><path class="cls-1" d="M97.46,384.7a2.05,2.05,0,1,1-2,2.05A2.05,2.05,0,0,1,97.46,384.7Z"/><path class="cls-1" d="M97.46,370a2.05,2.05,0,1,1-2,2.05A2.05,2.05,0,0,1,97.46,370Z"/><path class="cls-1" d="M97.46,355.3a2.05,2.05,0,1,1-2,2.05A2.05,2.05,0,0,1,97.46,355.3Z"/><path class="cls-16" d="M639.82,175.13a.54.54,0,0,1-.33-.12l-6.44-5.21L626.61,175a.53.53,0,0,1-.67,0l-6.44-5.21L613.06,175a.51.51,0,0,1-.66,0L606,169.8,599.52,175a.53.53,0,0,1-.67,0l-6.77-5.48a.53.53,0,0,1,.66-.82l6.45,5.21,6.43-5.21a.53.53,0,0,1,.67,0l6.44,5.21,6.44-5.21a.51.51,0,0,1,.66,0l6.44,5.21,6.45-5.21a.51.51,0,0,1,.66,0l6.44,5.21,6.45-5.21a.51.51,0,0,1,.66,0l6.45,5.21,6.45-5.21a.53.53,0,1,1,.66.82L653.71,175a.51.51,0,0,1-.66,0l-6.45-5.21L640.16,175A.54.54,0,0,1,639.82,175.13Z"/><path class="cls-16" d="M639.82,182.94a.54.54,0,0,1-.33-.12l-6.44-5.21-6.44,5.21a.53.53,0,0,1-.67,0l-6.44-5.21-6.44,5.21a.51.51,0,0,1-.66,0L606,177.61l-6.44,5.21a.53.53,0,0,1-.67,0l-6.77-5.48a.53.53,0,0,1,.66-.82l6.45,5.21,6.43-5.21a.56.56,0,0,1,.67,0l6.44,5.21,6.44-5.21a.54.54,0,0,1,.66,0l6.44,5.21,6.45-5.21a.54.54,0,0,1,.66,0l6.44,5.21,6.45-5.21a.54.54,0,0,1,.66,0l6.45,5.21,6.45-5.21a.53.53,0,1,1,.66.82l-6.78,5.48a.51.51,0,0,1-.66,0l-6.45-5.21-6.44,5.21A.54.54,0,0,1,639.82,182.94Z"/><path class="cls-1" d="M656.39,262.82a2.05,2.05,0,1,1-2-2.05A2,2,0,0,1,656.39,262.82Z"/><path class="cls-1" d="M671.1,262.82a2.05,2.05,0,1,1-2.06-2.05A2,2,0,0,1,671.1,262.82Z"/><path class="cls-1" d="M685.79,262.82a2,2,0,1,1-2-2.05A2,2,0,0,1,685.79,262.82Z"/><path class="cls-1" d="M656.39,275.21a2.05,2.05,0,1,1-2-2A2,2,0,0,1,656.39,275.21Z"/><path class="cls-1" d="M671.1,275.21a2.05,2.05,0,1,1-2.06-2A2,2,0,0,1,671.1,275.21Z"/><path class="cls-1" d="M685.79,275.21a2,2,0,1,1-2-2A2,2,0,0,1,685.79,275.21Z"/><path class="cls-1" d="M656.39,287.61a2.05,2.05,0,1,1-2-2.05A2,2,0,0,1,656.39,287.61Z"/><path class="cls-1" d="M671.1,287.61a2.05,2.05,0,1,1-2.06-2.05A2.05,2.05,0,0,1,671.1,287.61Z"/><path class="cls-1" d="M685.79,287.61a2,2,0,1,1-2-2.05A2,2,0,0,1,685.79,287.61Z"/><path class="cls-1" d="M656.39,300a2.05,2.05,0,1,1-2-2.05A2,2,0,0,1,656.39,300Z"/><path class="cls-1" d="M671.1,300A2.05,2.05,0,1,1,669,298,2.05,2.05,0,0,1,671.1,300Z"/><path class="cls-1" d="M685.79,300a2,2,0,1,1-2-2.05A2,2,0,0,1,685.79,300Z"/><path class="cls-1" d="M656.39,312.39a2.05,2.05,0,1,1-2-2.05A2,2,0,0,1,656.39,312.39Z"/><path class="cls-1" d="M671.1,312.39a2.05,2.05,0,1,1-2.06-2.05A2.05,2.05,0,0,1,671.1,312.39Z"/><path class="cls-1" d="M685.79,312.39a2,2,0,1,1-2-2.05A2,2,0,0,1,685.79,312.39Z"/><path class="cls-1" d="M656.39,324.79a2.05,2.05,0,1,1-2-2.06A2,2,0,0,1,656.39,324.79Z"/><path class="cls-1" d="M671.1,324.79a2.05,2.05,0,1,1-2.06-2.06A2.05,2.05,0,0,1,671.1,324.79Z"/><path class="cls-1" d="M685.79,324.79a2.05,2.05,0,1,1-2-2.06A2,2,0,0,1,685.79,324.79Z"/><path class="cls-1" d="M656.39,337.18a2.05,2.05,0,1,1-2-2.05A2,2,0,0,1,656.39,337.18Z"/><path class="cls-1" d="M671.1,337.18a2.05,2.05,0,1,1-2.06-2.05A2.05,2.05,0,0,1,671.1,337.18Z"/><path class="cls-1" d="M685.79,337.18a2,2,0,1,1-2-2.05A2,2,0,0,1,685.79,337.18Z"/><path class="cls-1" d="M656.39,349.57a2.05,2.05,0,1,1-2-2.05A2,2,0,0,1,656.39,349.57Z"/><path class="cls-1" d="M671.1,349.57a2.05,2.05,0,1,1-2.06-2.05A2.05,2.05,0,0,1,671.1,349.57Z"/><path class="cls-1" d="M685.79,349.57a2,2,0,1,1-2-2.05A2,2,0,0,1,685.79,349.57Z"/><path class="cls-1" d="M656.39,362a2.05,2.05,0,1,1-2-2A2,2,0,0,1,656.39,362Z"/><path class="cls-1" d="M671.1,362a2.05,2.05,0,1,1-2.06-2A2.05,2.05,0,0,1,671.1,362Z"/><path class="cls-1" d="M685.79,362a2,2,0,1,1-2-2A2,2,0,0,1,685.79,362Z"/><path class="cls-1" d="M656.39,374.36a2.05,2.05,0,1,1-2-2.05A2,2,0,0,1,656.39,374.36Z"/><path class="cls-1" d="M671.1,374.36a2.05,2.05,0,1,1-2.06-2.05A2,2,0,0,1,671.1,374.36Z"/><path class="cls-1" d="M685.79,374.36a2,2,0,1,1-2-2.05A2,2,0,0,1,685.79,374.36Z"/><path class="cls-1" d="M656.39,386.75a2.05,2.05,0,1,1-2-2.05A2,2,0,0,1,656.39,386.75Z"/><path class="cls-1" d="M671.1,386.75A2.05,2.05,0,1,1,669,384.7,2.05,2.05,0,0,1,671.1,386.75Z"/><path class="cls-1" d="M685.79,386.75a2,2,0,1,1-2-2.05A2,2,0,0,1,685.79,386.75Z"/><path class="cls-4" d="M643.66,72a13,13,0,1,1-13-13A13,13,0,0,1,643.66,72Z"/><path class="cls-7" d="M636.92,106.87a5.95,5.95,0,1,1-5.94-6A5.94,5.94,0,0,1,636.92,106.87Z"/><circle class="cls-4" cx="604.52" cy="258.24" r="7.96"/><circle class="cls-29" cx="592.24" cy="252.46" r="13.73"/><path class="cls-4" d="M421.57,177.71H347.2A16.71,16.71,0,0,1,330.49,161h0a16.71,16.71,0,0,1,16.71-16.71h80.49l10.59-7.44V161A16.71,16.71,0,0,1,421.57,177.71Z"/><path class="cls-1" d="M418.32,153.22H350.89a1,1,0,0,1-1.05-1.05h0a1,1,0,0,1,1.05-1h67.43a1.05,1.05,0,0,1,1.06,1h0A1.05,1.05,0,0,1,418.32,153.22Z"/><path class="cls-1" d="M384.47,162.15H350.89a1,1,0,0,1-1.05-1.05h0a1.06,1.06,0,0,1,1.05-1.06h33.58a1.06,1.06,0,0,1,1.06,1.06h0A1.05,1.05,0,0,1,384.47,162.15Z"/><path class="cls-1" d="M397.56,171.08H350.89a1,1,0,0,1-1.05-1.05h0a1.06,1.06,0,0,1,1.05-1.06h46.67a1.06,1.06,0,0,1,1.05,1.06h0A1,1,0,0,1,397.56,171.08Z"/><path class="cls-4" d="M561.48,224.23h37.4a9,9,0,0,0,9-9h0a9,9,0,0,0-9-9H558.19l-5.7-4v13A9,9,0,0,0,561.48,224.23Z"/><path class="cls-1" d="M564.59,212.85H597a.7.7,0,0,0,.7-.7h0a.7.7,0,0,0-.7-.7H564.59a.7.7,0,0,0-.7.7h0A.7.7,0,0,0,564.59,212.85Z"/><path class="cls-1" d="M580.29,218.79H597a.71.71,0,0,0,.7-.7h0a.7.7,0,0,0-.7-.7H580.29a.7.7,0,0,0-.7.7h0A.7.7,0,0,0,580.29,218.79Z"/><rect class="cls-3" x="363.72" y="84.92" width="33.85" height="19.69" rx="5.18"/><polygon class="cls-3" points="380.65 108.41 384.3 104.61 377 104.61 380.65 108.41"/><path class="cls-1" d="M380.65,100.25,378.86,99a21.9,21.9,0,0,1-1.81-1.42c-1.25-1.12-2.7-2.66-2.7-4.77a3.42,3.42,0,0,1,3.3-3.54,3.3,3.3,0,0,1,3,2.07,3.3,3.3,0,0,1,3-2.07,3.42,3.42,0,0,1,3.3,3.54c0,2.11-1.45,3.65-2.7,4.77A21.9,21.9,0,0,1,382.44,99Z"/><rect class="cls-3" x="529.82" y="53.14" width="33.85" height="19.69" rx="5.18"/><polygon class="cls-3" points="546.74 76.64 550.39 72.84 543.1 72.84 546.74 76.64"/><path class="cls-1" d="M546.74,68.48,545,67.23a20.8,20.8,0,0,1-1.8-1.42c-1.26-1.11-2.7-2.66-2.7-4.77a3.42,3.42,0,0,1,3.29-3.54,3.29,3.29,0,0,1,3,2.08,3.29,3.29,0,0,1,3-2.08A3.43,3.43,0,0,1,553,61c0,2.11-1.45,3.66-2.7,4.77a20.19,20.19,0,0,1-1.81,1.42Z"/><rect class="cls-3" x="414.59" y="208.66" width="33.85" height="19.69" rx="5.18"/><polygon class="cls-3" points="431.52 232.15 435.17 228.35 427.87 228.35 431.52 232.15"/><path class="cls-1" d="M431.52,224l-1.79-1.25a18.74,18.74,0,0,1-1.81-1.42c-1.26-1.11-2.7-2.66-2.7-4.77a3.42,3.42,0,0,1,3.3-3.54,3.29,3.29,0,0,1,3,2.08,3.27,3.27,0,0,1,3-2.08,3.42,3.42,0,0,1,3.29,3.54c0,2.11-1.44,3.66-2.7,4.77a20.8,20.8,0,0,1-1.8,1.42Z"/><text class="cls-30" transform="translate(34.36 149.03)">ME</text><text class="cls-30" transform="translate(34.36 112.32)">ABOUT</text><path class="cls-4" d="M116.11,264.79H46.69a12.41,12.41,0,0,1-12.4-12.41h0A12.41,12.41,0,0,1,46.69,240h69.42a12.41,12.41,0,0,1,12.41,12.41h0A12.41,12.41,0,0,1,116.11,264.79Z"/><text class="cls-31" transform="translate(44.02 255.75)">LEARN MORE</text><text class="cls-32" transform="translate(37.92 39.06)"><tspan class="cls-33">Y</tspan><tspan x="4.89" y="0">OUR </tspan><tspan class="cls-34" x="25.09" y="0">L</tspan><tspan x="29.28" y="0">OGO</tspan></text><path class="cls-4" d="M39.23,278a2.47,2.47,0,1,1-2.47-2.47A2.47,2.47,0,0,1,39.23,278Z"/><path class="cls-13" d="M55,278a2.47,2.47,0,1,1-2.47-2.47A2.47,2.47,0,0,1,55,278Z"/><path class="cls-13" d="M70.73,278a2.47,2.47,0,1,1-2.47-2.47A2.47,2.47,0,0,1,70.73,278Z"/><text class="cls-35" transform="translate(34.29 176.22)"><tspan class="cls-36">L</tspan><tspan class="cls-37" x="5.33" y="0">o</tspan><tspan class="cls-38" x="11.71" y="0">r</tspan><tspan x="15.4" y="0">em ipsum dolor sit ame</tspan><tspan class="cls-39" x="129" y="0">t</tspan><tspan x="132.82" y="0">, </tspan><tspan class="cls-40" x="137.69" y="0">c</tspan><tspan class="cls-37" x="142.83" y="0">onse</tspan><tspan class="cls-41" x="166.1" y="0">c</tspan><tspan class="cls-40" x="171.46" y="0">t</tspan><tspan x="175.24" y="0">etur adip</tspan><tspan x="0" y="15.86">iscing eli</tspan><tspan class="cls-39" x="41.97" y="15.86">t</tspan><tspan x="45.78" y="15.86">, sed do eiusmod </tspan><tspan class="cls-40" x="130.18" y="15.86">t</tspan><tspan x="133.96" y="15.86">empor incididu</tspan><tspan class="cls-42" x="208.1" y="15.86">n</tspan><tspan x="214.51" y="15.86">t</tspan><tspan x="0" y="31.71">ut labo</tspan><tspan class="cls-38" x="34.07" y="31.71">r</tspan><tspan class="cls-37" x="37.76" y="31.71">e et dolo</tspan><tspan class="cls-43" x="80.26" y="31.71">r</tspan><tspan x="83.94" y="31.71">e ma</tspan><tspan class="cls-44" x="107.54" y="31.71">g</tspan><tspan x="113.97" y="31.71">na aliqua. </tspan><tspan class="cls-45" x="162.99" y="31.71">U</tspan><tspan x="170.56" y="31.71">t enim ad</tspan><tspan x="0" y="47.57">minim </tspan><tspan class="cls-46" x="33.76" y="47.57">v</tspan><tspan class="cls-37" x="39.23" y="47.57">eniam.</tspan></text></g></g></g></svg>