<svg xmlns="http://www.w3.org/2000/svg" viewBox="0 0 841.89 595.28"><defs><style>.cls-1,.cls-2,.cls-3,.cls-4,.cls-5{fill:#bcbec0;}.cls-1,.cls-2,.cls-3,.cls-5{stroke:#bcbec0;}.cls-1,.cls-10,.cls-11,.cls-12,.cls-13,.cls-14,.cls-15,.cls-2,.cls-3,.cls-4,.cls-5,.cls-6,.cls-7,.cls-8{stroke-miterlimit:10;}.cls-1{stroke-width:1.16px;}.cls-2{stroke-width:1.2px;}.cls-3{stroke-width:1.58px;}.cls-4,.cls-6,.cls-7{stroke:#808285;}.cls-15,.cls-4,.cls-6,.cls-8{stroke-width:1.08px;}.cls-5{stroke-width:5.9px;}.cls-6,.cls-7,.cls-9{fill:#808285;}.cls-7{stroke-width:6.72px;}.cls-10,.cls-11,.cls-12,.cls-13,.cls-14,.cls-19,.cls-8{fill:#231f20;}.cls-10,.cls-11,.cls-12,.cls-13,.cls-14,.cls-15,.cls-8{stroke:#231f20;}.cls-10{stroke-width:1.3px;}.cls-11{stroke-width:1.25px;}.cls-12{stroke-width:1.3px;}.cls-13{stroke-width:1.31px;}.cls-14{stroke-width:1.77px;}.cls-15{fill:#21409a;}.cls-16{fill:#ed1c24;}.cls-17{fill:#fff200;}.cls-18{fill:#ed2e92;}</style></defs><g id="Layer_3" data-name="Layer 3"><rect class="cls-1" x="202.48" y="425.23" width="16.63" height="14.52"/><rect class="cls-1" x="192.56" y="425.23" width="16.63" height="14.52"/><rect class="cls-2" x="192.31" y="438.64" width="17.07" height="15.25"/><rect class="cls-1" x="177.54" y="438.64" width="16.63" height="14.52"/><rect class="cls-3" x="163.71" y="452.79" width="31.26" height="14.52"/><rect class="cls-4" x="220.53" y="106.25" width="411.22" height="276.99"/><rect class="cls-5" x="209.19" y="409.8" width="433.13" height="14.52"/><rect class="cls-6" x="220.53" y="383.89" width="411.22" height="13.41"/><rect class="cls-7" x="153.65" y="480.35" width="520.54" height="13.41"/><rect class="cls-8" x="220.53" y="93.76" width="411.22" height="12.49"/><rect class="cls-8" x="221.27" y="397.3" width="410.48" height="12.49"/><rect class="cls-8" x="206.57" y="106.25" width="13.96" height="303.54"/><rect class="cls-8" x="631.75" y="106.25" width="13.96" height="303.54"/><polygon class="cls-9" points="683.71 453.89 679.84 453.89 679.84 440.48 674.48 440.48 674.48 427.66 667.4 427.66 667.4 424.31 653.98 424.31 653.98 423.91 219.11 423.91 219.11 439.56 208.85 439.56 208.85 453.89 208.59 453.89 195.78 453.89 195.78 467.31 208.59 467.31 209.19 467.31 222.01 467.31 222.74 467.31 656.88 467.31 656.88 467.31 670.29 467.31 675.85 467.31 683.71 467.31 689.26 467.31 689.26 453.89 683.71 453.89"/><rect class="cls-8" x="192.05" y="409.8" width="14.52" height="14.52"/><rect class="cls-8" x="177.54" y="424.31" width="14.52" height="14.52"/><rect class="cls-8" x="163.02" y="438.83" width="14.52" height="14.52"/><rect class="cls-8" x="148.51" y="453.34" width="14.52" height="14.52"/><rect class="cls-8" x="645.71" y="409.8" width="14.52" height="14.52"/><rect class="cls-8" x="660.23" y="424.31" width="14.52" height="14.52"/><rect class="cls-8" x="674.75" y="438.83" width="14.52" height="14.52"/><rect class="cls-8" x="689.26" y="453.34" width="14.52" height="14.52"/><rect class="cls-8" x="137.3" y="467.86" width="579.34" height="12.31"/><rect class="cls-8" x="150.71" y="493.95" width="552.15" height="13.78"/><rect class="cls-8" x="137.3" y="480.17" width="13.41" height="13.78"/><rect class="cls-8" x="674.75" y="480.17" width="41.89" height="13.78"/><rect class="cls-8" x="232.85" y="368.73" width="14.52" height="14.52"/><rect class="cls-8" x="301.93" y="368.73" width="14.52" height="14.52"/><rect class="cls-8" x="260.41" y="368.73" width="28.85" height="14.52"/><rect class="cls-10" x="250.67" y="424.6" width="13.41" height="14.6"/><rect class="cls-11" x="237.26" y="439.19" width="13.41" height="13.41"/><rect class="cls-10" x="289.25" y="424.6" width="13.41" height="14.6"/><rect class="cls-11" x="275.84" y="439.19" width="13.41" height="13.41"/><rect class="cls-10" x="331.49" y="424.6" width="13.41" height="14.6"/><rect class="cls-11" x="318.08" y="439.19" width="13.41" height="13.41"/><rect class="cls-10" x="373.05" y="424.6" width="13.41" height="14.6"/><rect class="cls-11" x="359.64" y="439.19" width="13.41" height="13.41"/><rect class="cls-12" x="469.79" y="424.6" width="13.41" height="14.6" transform="translate(953 863.79) rotate(-180)"/><rect class="cls-11" x="483.21" y="439.19" width="13.41" height="13.41" transform="translate(979.83 891.8) rotate(-180)"/><rect class="cls-13" x="510.6" y="424.57" width="13.41" height="14.62" transform="translate(1034.62 863.77) rotate(-180)"/><rect class="cls-11" x="524.01" y="439.19" width="13.41" height="13.41" transform="translate(1061.44 891.8) rotate(-180)"/><rect class="cls-11" x="551.55" y="424.57" width="13.41" height="14.25"/><rect class="cls-11" x="564.96" y="438.83" width="13.41" height="13.41"/><rect class="cls-11" x="594.36" y="424.57" width="13.41" height="14.25"/><rect class="cls-11" x="607.77" y="438.83" width="13.41" height="13.41"/><rect class="cls-14" x="414.61" y="424.87" width="25.03" height="14.32"/><rect class="cls-11" x="401.2" y="439.19" width="13.41" height="13.41"/><rect class="cls-11" x="439.65" y="439.19" width="13.41" height="13.41"/><polygon class="cls-8" points="619.62 355.77 234.31 355.77 234.31 120.58 619.44 120.58 619.62 355.77"/><polygon class="cls-15" points="606.03 343.28 247.91 343.28 247.91 133.08 605.86 133.08 606.03 343.28"/><rect class="cls-16" x="324.61" y="209.91" width="64.02" height="60.09"/><rect class="cls-17" x="398.88" y="209.91" width="54.69" height="54.69"/><polygon class="cls-18" points="494.1 209.91 465.31 209.91 465.31 268.43 494.1 268.43 494.1 242.83 524.74 242.83 524.74 209.91 494.1 209.91"/><polygon class="cls-19" points="430.06 256.75 437.91 256.75 437.91 248.94 437.91 241.09 437.91 233.27 437.91 225.42 437.91 217.57 430.06 217.57 422.2 217.57 414.55 217.57 414.55 225.42 414.55 233.27 414.55 241.09 414.55 248.94 414.55 256.75 422.2 256.75 430.06 256.75"/><path class="cls-19" d="M531.74,209.91v-7.85H461.38v7.85h-7.81v-7.85H398.88v7.85h-7.71v-7.85H359.78v7.85h-7.86v-7.85H320.68v70.2h7.87V280h31.23v-7.73h7.87V280h31.23v-7.73h7.82V280h54.68v-7.73h7.86V280h31.17V256.75h31.33V233.27h7.69V209.91Zm-148.39,7.66v47h-15.7V241.09H344.24V264.6H328.55V209.91h15.69v23.36h23.41V209.91h15.7Zm70.22,7.85v31.33h-7.85v7.85h-39v-7.85h-7.82V217.57h7.82v-7.66h39v7.66h7.85Zm70.35-7.85h-39v15.7h31.17v7.82H484.9V264.6H469.24V209.91h54.68Z"/><rect class="cls-9" x="208.85" y="440.48" width="13.41" height="13.41"/></g></svg>